<?xml version="1.0" encoding="utf-8" ?>
<svg baseProfile="tiny" height="708px" version="1.2" width="818px" xmlns="http://www.w3.org/2000/svg" xmlns:ev="http://www.w3.org/2001/xml-events" xmlns:xlink="http://www.w3.org/1999/xlink"><defs /><rect fill="white" height="708" width="818" x="0" y="0" /><path d="M 689.0,218.0 L 688.0,218.0 L 687.0,218.0 L 686.0,218.0 L 685.0,218.0 L 684.0,218.0 L 683.0,218.0 L 682.0,218.0 L 681.0,218.0 L 680.0,218.0 L 679.0,218.0 L 678.0,218.0 L 677.0,218.0 L 676.0,218.0 L 675.0,217.0 L 675.0,217.0 L 674.0,217.0 L 673.0,217.0 L 672.0,217.0 L 671.0,216.0 L 671.0,216.0 L 670.0,216.0 L 669.0,216.0 L 668.0,215.0 L 668.0,215.0 L 667.0,215.0 L 666.0,214.0 L 666.0,214.0 L 665.0,214.0 L 664.0,213.0 L 664.0,213.0 L 663.0,212.0 L 663.0,212.0 L 662.0,212.0 L 661.0,211.0 L 661.0,211.0 L 660.0,210.0 L 660.0,210.0 L 659.0,209.0 L 659.0,209.0 L 658.0,208.0 L 658.0,208.0 L 657.0,208.0 L 656.0,207.0 L 656.0,207.0 L 655.0,206.0 L 655.0,206.0 L 654.0,205.0 L 654.0,205.0 L 653.0,204.0 L 653.0,204.0 L 652.0,204.0 L 651.0,203.0 L 651.0,203.0 L 650.0,202.0 L 650.0,202.0 L 649.0,201.0 L 649.0,201.0 L 648.0,201.0 L 647.0,200.0 L 647.0,200.0 L 646.0,199.0 L 646.0,199.0 L 645.0,198.0 L 645.0,198.0 L 644.0,198.0 L 643.0,197.0 L 643.0,197.0 L 642.0,196.0 L 642.0,196.0 L 641.0,195.0 L 641.0,195.0 L 640.0,195.0 L 639.0,194.0 L 639.0,194.0 L 638.0,193.0 L 638.0,193.0 L 637.0,192.0 L 637.0,192.0 L 636.0,192.0 L 635.0,191.0 L 635.0,191.0 L 634.0,190.0 L 634.0,190.0 L 633.0,190.0 L 632.0,189.0 L 632.0,189.0 L 631.0,188.0 L 631.0,188.0 L 630.0,188.0 L 629.0,187.0 L 629.0,187.0 L 628.0,186.0 L 628.0,186.0 L 627.0,185.0 L 627.0,185.0 L 626.0,185.0 L 625.0,184.0 L 625.0,184.0 L 624.0,183.0 L 624.0,183.0 L 623.0,183.0 L 622.0,182.0 L 622.0,182.0 L 621.0,181.0 L 621.0,181.0 L 620.0,181.0 L 619.0,180.0 L 619.0,180.0 L 618.0,180.0 L 617.0,179.0 L 617.0,179.0 L 616.0,178.0 L 616.0,178.0 L 615.0,178.0 L 614.0,177.0 L 614.0,177.0 L 613.0,176.0 L 613.0,176.0 L 612.0,176.0 L 611.0,175.0 L 611.0,175.0 L 610.0,175.0 L 609.0,174.0 L 609.0,174.0 L 608.0,173.0 L 608.0,173.0 L 607.0,173.0 L 606.0,172.0 L 606.0,172.0 L 605.0,172.0 L 604.0,171.0 L 604.0,171.0 L 603.0,170.0 L 603.0,170.0 L 602.0,170.0 L 601.0,169.0 L 601.0,169.0 L 600.0,169.0 L 599.0,168.0 L 599.0,168.0 L 598.0,167.0 L 598.0,167.0 L 597.0,167.0 L 596.0,166.0 L 596.0,166.0 L 595.0,166.0 L 594.0,165.0 L 594.0,165.0 L 593.0,165.0 L 592.0,164.0 L 592.0,164.0 L 591.0,164.0 L 590.0,163.0 L 590.0,163.0 L 589.0,162.0 L 589.0,162.0 L 588.0,162.0 L 587.0,161.0 L 587.0,161.0 L 586.0,161.0 L 585.0,160.0 L 585.0,160.0 L 584.0,160.0 L 583.0,159.0 L 583.0,159.0 L 582.0,159.0 L 581.0,158.0 L 581.0,158.0 L 580.0,158.0 L 579.0,157.0 L 579.0,157.0 L 578.0,157.0 L 577.0,156.0 L 577.0,156.0 L 576.0,156.0 L 575.0,155.0 L 575.0,155.0 L 574.0,155.0 L 573.0,154.0 L 573.0,154.0 L 572.0,154.0 L 571.0,153.0 L 571.0,153.0 L 570.0,153.0 L 569.0,152.0 L 569.0,152.0 L 568.0,152.0 L 567.0,151.0 L 567.0,151.0 L 566.0,151.0 L 565.0,150.0 L 565.0,150.0 L 564.0,150.0 L 563.0,149.0 L 563.0,149.0 L 562.0,149.0 L 561.0,149.0 L 560.0,148.0 L 560.0,148.0 L 559.0,148.0 L 558.0,147.0 L 558.0,147.0 L 557.0,147.0 L 556.0,146.0 L 556.0,146.0 L 555.0,146.0 L 554.0,145.0 L 554.0,145.0 L 553.0,145.0 L 552.0,145.0 L 551.0,144.0 L 551.0,144.0 L 550.0,144.0 L 549.0,143.0 L 549.0,143.0 L 548.0,143.0 L 547.0,142.0 L 547.0,142.0 L 546.0,142.0 L 545.0,142.0 L 544.0,141.0 L 544.0,141.0 L 543.0,141.0 L 542.0,140.0 L 542.0,140.0 L 541.0,140.0 L 540.0,140.0 L 539.0,139.0 L 539.0,139.0 L 538.0,139.0 L 537.0,138.0 L 537.0,138.0 L 536.0,138.0 L 535.0,138.0 L 534.0,137.0 L 534.0,137.0 L 533.0,137.0 L 532.0,136.0 L 532.0,136.0 L 531.0,136.0 L 530.0,136.0 L 529.0,135.0 L 529.0,135.0 L 528.0,135.0 L 527.0,135.0 L 526.0,134.0 L 526.0,134.0 L 525.0,134.0 L 524.0,134.0 L 523.0,133.0 L 523.0,133.0 L 522.0,133.0 L 521.0,133.0 L 520.0,132.0 L 520.0,132.0 L 519.0,132.0 L 518.0,132.0 L 517.0,131.0 L 517.0,131.0 L 516.0,131.0 L 515.0,131.0 L 514.0,130.0 L 514.0,130.0 L 513.0,130.0 L 512.0,130.0 L 511.0,130.0 L 510.0,129.0 L 510.0,129.0 L 509.0,129.0 L 508.0,129.0 L 507.0,128.0 L 507.0,128.0 L 506.0,128.0 L 505.0,128.0 L 504.0,128.0 L 503.0,127.0 L 503.0,127.0 L 502.0,127.0 L 501.0,127.0 L 500.0,126.0 L 500.0,126.0 L 499.0,126.0 L 498.0,126.0 L 497.0,126.0 L 496.0,125.0 L 496.0,125.0 L 495.0,125.0 L 494.0,125.0 L 493.0,125.0 L 492.0,124.0 L 492.0,124.0 L 491.0,124.0 L 490.0,124.0 L 489.0,124.0 L 488.0,123.0 L 488.0,123.0 L 487.0,123.0 L 486.0,123.0 L 485.0,123.0 L 484.0,122.0 L 484.0,122.0 L 483.0,122.0 L 482.0,122.0 L 481.0,122.0 L 480.0,121.0 L 480.0,121.0 L 479.0,121.0 L 478.0,121.0 L 477.0,121.0 L 476.0,121.0 L 475.0,120.0 L 475.0,120.0 L 474.0,120.0 L 473.0,120.0 L 472.0,119.0 L 472.0,119.0 L 471.0,119.0 L 470.0,119.0 L 469.0,119.0 L 468.0,119.0 L 467.0,119.0 L 466.0,118.0 L 466.0,118.0 L 465.0,118.0 L 464.0,118.0 L 463.0,118.0 L 462.0,118.0 L 461.0,118.0 L 460.0,117.0 L 460.0,117.0 L 459.0,117.0 L 458.0,117.0 L 457.0,117.0 L 456.0,117.0 L 455.0,117.0 L 454.0,116.0 L 454.0,116.0 L 453.0,116.0 L 452.0,116.0 L 451.0,116.0 L 450.0,116.0 L 449.0,115.0 L 449.0,115.0 L 449.0,115.0 L 448.0,116.0 L 447.0,115.0 L 447.0,115.0 L 446.0,115.0 L 445.0,115.0 L 444.0,115.0 L 443.0,114.0 L 443.0,114.0 L 442.0,114.0 L 441.0,114.0 L 440.0,114.0 L 439.0,114.0 L 438.0,114.0 L 437.0,114.0 L 436.0,114.0 L 435.0,114.0 L 434.0,113.0 L 434.0,113.0 L 433.0,113.0 L 432.0,113.0 L 431.0,113.0 L 430.0,113.0 L 429.0,113.0 L 428.0,113.0 L 427.0,113.0 L 426.0,113.0 L 425.0,113.0 L 424.0,112.0 L 424.0,112.0 L 423.0,112.0 L 422.0,112.0 L 421.0,112.0 L 420.0,112.0 L 419.0,112.0 L 418.0,112.0 L 417.0,112.0 L 416.0,112.0 L 415.0,112.0 L 414.0,112.0 L 413.0,112.0 L 412.0,111.0 L 412.0,111.0 L 411.0,111.0 L 410.0,111.0 L 409.0,111.0 L 408.0,111.0 L 407.0,111.0 L 406.0,111.0 L 405.0,111.0 L 404.0,111.0 L 403.0,111.0 L 402.0,111.0 L 401.0,111.0 L 400.0,111.0 L 399.0,111.0 L 398.0,111.0 L 397.0,111.0 L 396.0,111.0 L 395.0,110.0 L 395.0,110.0 L 395.0,110.0 L 394.0,111.0 L 393.0,111.0 L 392.0,111.0 L 391.0,111.0 L 390.0,111.0 L 389.0,111.0 L 388.0,111.0 L 387.0,111.0 L 386.0,111.0 L 385.0,111.0 L 384.0,111.0 L 383.0,111.0 L 382.0,111.0 L 381.0,111.0 L 380.0,111.0 L 379.0,111.0 L 378.0,111.0 L 377.0,111.0 L 376.0,111.0 L 375.0,111.0 L 374.0,111.0 L 373.0,111.0 L 372.0,111.0 L 371.0,111.0 L 370.0,111.0 L 369.0,111.0 L 368.0,111.0 L 367.0,111.0 L 366.0,111.0 L 365.0,111.0 L 364.0,111.0 L 363.0,111.0 L 362.0,111.0 L 361.0,111.0 L 360.0,111.0 L 359.0,111.0 L 358.0,111.0 L 357.0,111.0 L 356.0,111.0 L 356.0,111.0 L 355.0,112.0 L 354.0,112.0 L 353.0,112.0 L 352.0,112.0 L 351.0,112.0 L 350.0,112.0 L 349.0,112.0 L 348.0,112.0 L 348.0,112.0 L 347.0,113.0 L 346.0,113.0 L 345.0,113.0 L 344.0,113.0 L 343.0,113.0 L 342.0,113.0 L 341.0,113.0 L 340.0,113.0 L 339.0,113.0 L 338.0,113.0 L 337.0,113.0 L 337.0,113.0 L 336.0,114.0 L 335.0,114.0 L 334.0,114.0 L 333.0,114.0 L 332.0,114.0 L 331.0,114.0 L 330.0,114.0 L 329.0,114.0 L 328.0,114.0 L 328.0,114.0 L 327.0,115.0 L 326.0,115.0 L 325.0,115.0 L 324.0,115.0 L 323.0,115.0 L 322.0,115.0 L 321.0,115.0 L 321.0,115.0 L 320.0,116.0 L 319.0,116.0 L 318.0,116.0 L 317.0,116.0 L 316.0,116.0 L 316.0,116.0 L 315.0,117.0 L 314.0,117.0 L 313.0,117.0 L 312.0,117.0 L 312.0,117.0 L 311.0,118.0 L 310.0,118.0 L 309.0,118.0 L 308.0,118.0 L 308.0,118.0 L 307.0,119.0 L 306.0,119.0 L 305.0,119.0 L 305.0,119.0 L 304.0,120.0 L 303.0,120.0 L 302.0,120.0 L 301.0,120.0 L 301.0,120.0 L 300.0,121.0 L 299.0,121.0 L 298.0,121.0 L 297.0,121.0 L 296.0,121.0 L 295.0,121.0 L 294.0,121.0 L 293.0,121.0 L 292.0,121.0 L 292.0,121.0 L 291.0,122.0 L 290.0,122.0 L 290.0,122.0 L 289.0,123.0 L 288.0,123.0 L 287.0,123.0 L 286.0,123.0 L 286.0,123.0 L 285.0,124.0 L 284.0,124.0 L 283.0,124.0 L 282.0,124.0 L 282.0,124.0 L 281.0,125.0 L 280.0,125.0 L 279.0,125.0 L 278.0,125.0 L 278.0,125.0 L 277.0,126.0 L 276.0,126.0 L 275.0,126.0 L 274.0,126.0 L 273.0,126.0 L 272.0,126.0 L 272.0,126.0 L 271.0,127.0 L 270.0,127.0 L 269.0,127.0 L 269.0,127.0 L 268.0,128.0 L 267.0,128.0 L 267.0,128.0 L 266.0,129.0 L 265.0,129.0 L 264.0,129.0 L 264.0,129.0 L 263.0,130.0 L 262.0,130.0 L 261.0,130.0 L 261.0,130.0 L 260.0,131.0 L 259.0,131.0 L 258.0,131.0 L 258.0,131.0 L 257.0,132.0 L 256.0,132.0 L 256.0,132.0 L 255.0,133.0 L 254.0,133.0 L 253.0,133.0 L 253.0,133.0 L 252.0,134.0 L 251.0,134.0 L 250.0,134.0 L 250.0,134.0 L 249.0,135.0 L 248.0,135.0 L 247.0,135.0 L 246.0,135.0 L 246.0,135.0 L 245.0,136.0 L 244.0,136.0 L 244.0,136.0 L 243.0,137.0 L 242.0,137.0 L 241.0,137.0 L 241.0,137.0 L 240.0,138.0 L 239.0,138.0 L 238.0,138.0 L 237.0,138.0 L 237.0,138.0 L 236.0,139.0 L 235.0,139.0 L 234.0,139.0 L 234.0,139.0 L 233.0,140.0 L 232.0,140.0 L 231.0,140.0 L 231.0,140.0 L 230.0,141.0 L 229.0,141.0 L 229.0,141.0 L 228.0,142.0 L 227.0,142.0 L 227.0,142.0 L 226.0,143.0 L 225.0,143.0 L 225.0,143.0 L 224.0,144.0 L 224.0,144.0 L 223.0,145.0 L 222.0,145.0 L 222.0,145.0 L 221.0,146.0 L 220.0,146.0 L 220.0,146.0 L 219.0,147.0 L 218.0,147.0 L 217.0,147.0 L 216.0,147.0 L 216.0,147.0 L 215.0,148.0 L 214.0,148.0 L 214.0,148.0 L 213.0,149.0 L 213.0,149.0 L 212.0,150.0 L 211.0,150.0 L 211.0,150.0 L 210.0,151.0 L 209.0,151.0 L 208.0,151.0 L 207.0,151.0 L 207.0,151.0 L 206.0,152.0 L 205.0,152.0 L 205.0,152.0 L 204.0,153.0 L 204.0,153.0 L 203.0,154.0 L 203.0,154.0 L 202.0,155.0 L 201.0,155.0 L 201.0,155.0 L 200.0,156.0 L 199.0,156.0 L 198.0,156.0 L 197.0,156.0 L 197.0,156.0 L 196.0,157.0 L 196.0,157.0 L 195.0,158.0 L 194.0,158.0 L 194.0,158.0 L 193.0,159.0 L 192.0,159.0 L 192.0,159.0 L 191.0,160.0 L 190.0,160.0 L 190.0,160.0 L 189.0,161.0 L 188.0,161.0 L 188.0,161.0 L 187.0,162.0 L 186.0,162.0 L 186.0,162.0 L 185.0,163.0 L 185.0,163.0 L 184.0,164.0 L 183.0,164.0 L 183.0,164.0 L 182.0,165.0 L 181.0,165.0 L 181.0,165.0 L 180.0,166.0 L 179.0,166.0 L 179.0,166.0 L 178.0,167.0 L 177.0,167.0 L 177.0,167.0 L 176.0,168.0 L 176.0,168.0 L 175.0,169.0 L 174.0,169.0 L 174.0,169.0 L 173.0,170.0 L 172.0,170.0 L 172.0,170.0 L 171.0,171.0 L 171.0,171.0 L 170.0,172.0 L 169.0,172.0 L 169.0,172.0 L 168.0,173.0 L 167.0,173.0 L 167.0,173.0 L 166.0,174.0 L 166.0,174.0 L 165.0,175.0 L 164.0,175.0 L 164.0,175.0 L 163.0,176.0 L 163.0,176.0 L 162.0,177.0 L 161.0,177.0 L 161.0,177.0 L 160.0,178.0 L 159.0,178.0 L 159.0,178.0 L 158.0,179.0 L 158.0,179.0 L 157.0,180.0 L 156.0,180.0 L 156.0,180.0 L 155.0,181.0 L 155.0,181.0 L 154.0,182.0 L 153.0,182.0 L 153.0,182.0 L 152.0,183.0 L 152.0,183.0 L 151.0,184.0 L 150.0,184.0 L 150.0,184.0 L 149.0,185.0 L 149.0,185.0 L 148.0,186.0 L 147.0,186.0 L 147.0,186.0 L 146.0,187.0 L 146.0,187.0 L 145.0,188.0 L 145.0,188.0 L 144.0,189.0 L 143.0,189.0 L 143.0,189.0 L 142.0,190.0 L 142.0,190.0 L 141.0,191.0 L 140.0,191.0 L 140.0,191.0 L 139.0,192.0 L 139.0,192.0 L 138.0,193.0 L 138.0,193.0 L 137.0,194.0 L 136.0,194.0 L 136.0,194.0 L 135.0,195.0 L 135.0,195.0 L 134.0,196.0 L 134.0,196.0 L 133.0,197.0 L 132.0,197.0 L 132.0,197.0 L 131.0,198.0 L 131.0,198.0 L 130.0,199.0 L 130.0,199.0 L 129.0,200.0 L 128.0,200.0 L 128.0,200.0 L 127.0,201.0 L 127.0,201.0 L 126.0,202.0 L 126.0,202.0 L 125.0,203.0 L 125.0,203.0 L 124.0,204.0 L 123.0,204.0 L 123.0,204.0 L 122.0,205.0 L 122.0,205.0 L 121.0,206.0 L 121.0,206.0 L 120.0,207.0 L 120.0,207.0 L 119.0,208.0 L 118.0,208.0 L 118.0,208.0 L 117.0,209.0 L 117.0,209.0 L 116.0,210.0 L 116.0,210.0 L 115.0,211.0 L 115.0,211.0 L 114.0,212.0 L 114.0,212.0 L 113.0,213.0 L 112.0,213.0 L 112.0,213.0 L 111.0,214.0 L 111.0,214.0 L 110.0,215.0 L 109.0,215.0 L 109.0,215.0 L 108.0,216.0 L 107.0,216.0 L 106.0,216.0 L 106.0,216.0 L 105.0,217.0 L 104.0,217.0 L 103.0,217.0 L 102.0,217.0 L 101.0,217.0 L 101.0,217.0 L 100.0,218.0 L 99.0,218.0 L 98.0,218.0 L 97.0,218.0 L 96.0,218.0 L 95.0,218.0 L 94.0,218.0 L 93.0,218.0 L 92.0,218.0 L 91.0,218.0 L 90.0,218.0 L 89.0,217.0 L 89.0,217.0 L 88.0,217.0 L 87.0,217.0 L 86.0,216.0 L 86.0,216.0 L 85.0,216.0 L 84.0,215.0 L 84.0,215.0 L 83.0,214.0 L 83.0,214.0 L 82.0,214.0 L 81.0,213.0 L 81.0,213.0 L 80.0,212.0 L 80.0,212.0 L 79.0,211.0 L 79.0,211.0 L 78.0,210.0 L 78.0,210.0 L 77.0,209.0 L 77.0,209.0 L 76.0,208.0 L 76.0,208.0 L 75.0,207.0 L 75.0,207.0 L 74.0,206.0 L 74.0,205.0 L 74.0,205.0 L 73.0,204.0 L 73.0,203.0 L 73.0,203.0 L 72.0,202.0 L 72.0,201.0 L 72.0,201.0 L 71.0,200.0 L 71.0,199.0 L 71.0,198.0 L 71.0,197.0 L 71.0,197.0 L 70.0,196.0 L 70.0,195.0 L 70.0,194.0 L 70.0,193.0 L 70.0,192.0 L 70.0,191.0 L 70.0,190.0 L 70.0,189.0 L 70.0,188.0 L 70.0,187.0 L 71.0,186.0 L 71.0,186.0 L 71.0,185.0 L 71.0,184.0 L 72.0,183.0 L 72.0,183.0 L 72.0,182.0 L 73.0,181.0 L 73.0,181.0 L 73.0,180.0 L 74.0,179.0 L 74.0,179.0 L 74.0,178.0 L 75.0,177.0 L 75.0,177.0 L 75.0,176.0 L 76.0,175.0 L 76.0,175.0 L 77.0,174.0 L 77.0,174.0 L 78.0,173.0 L 78.0,173.0 L 79.0,172.0 L 79.0,172.0 L 80.0,171.0 L 80.0,171.0 L 81.0,170.0 L 81.0,170.0 L 82.0,169.0 L 83.0,169.0 L 83.0,169.0 L 84.0,168.0 L 84.0,168.0 L 85.0,167.0 L 85.0,167.0 L 86.0,166.0 L 86.0,166.0 L 87.0,165.0 L 87.0,165.0 L 88.0,164.0 L 89.0,164.0 L 89.0,164.0 L 90.0,163.0 L 90.0,163.0 L 91.0,162.0 L 91.0,162.0 L 92.0,161.0 L 92.0,161.0 L 93.0,160.0 L 94.0,160.0 L 94.0,160.0 L 95.0,159.0 L 95.0,159.0 L 96.0,158.0 L 96.0,158.0 L 97.0,157.0 L 98.0,157.0 L 98.0,157.0 L 99.0,156.0 L 99.0,156.0 L 100.0,155.0 L 100.0,155.0 L 101.0,154.0 L 102.0,154.0 L 102.0,154.0 L 103.0,153.0 L 103.0,153.0 L 104.0,152.0 L 104.0,152.0 L 105.0,151.0 L 106.0,151.0 L 106.0,151.0 L 107.0,150.0 L 107.0,150.0 L 108.0,149.0 L 108.0,149.0 L 109.0,148.0 L 110.0,148.0 L 110.0,148.0 L 111.0,147.0 L 111.0,147.0 L 112.0,146.0 L 113.0,146.0 L 113.0,146.0 L 114.0,145.0 L 114.0,145.0 L 115.0,144.0 L 115.0,144.0 L 116.0,143.0 L 117.0,143.0 L 117.0,143.0 L 118.0,142.0 L 118.0,142.0 L 119.0,141.0 L 120.0,141.0 L 120.0,141.0 L 121.0,140.0 L 121.0,140.0 L 122.0,139.0 L 123.0,139.0 L 123.0,139.0 L 124.0,138.0 L 124.0,138.0 L 125.0,137.0 L 126.0,137.0 L 126.0,137.0 L 127.0,136.0 L 127.0,136.0 L 128.0,135.0 L 129.0,135.0 L 129.0,135.0 L 130.0,134.0 L 130.0,134.0 L 131.0,133.0 L 132.0,133.0 L 132.0,133.0 L 133.0,132.0 L 134.0,132.0 L 134.0,132.0 L 135.0,131.0 L 135.0,131.0 L 136.0,130.0 L 137.0,130.0 L 137.0,130.0 L 138.0,129.0 L 138.0,129.0 L 139.0,128.0 L 140.0,128.0 L 140.0,128.0 L 141.0,127.0 L 142.0,127.0 L 142.0,127.0 L 143.0,126.0 L 143.0,126.0 L 144.0,125.0 L 145.0,125.0 L 145.0,125.0 L 146.0,124.0 L 147.0,124.0 L 147.0,124.0 L 148.0,123.0 L 149.0,123.0 L 149.0,123.0 L 150.0,122.0 L 150.0,122.0 L 151.0,121.0 L 152.0,121.0 L 152.0,121.0 L 153.0,120.0 L 154.0,120.0 L 154.0,120.0 L 155.0,119.0 L 156.0,119.0 L 156.0,119.0 L 157.0,118.0 L 157.0,118.0 L 158.0,117.0 L 159.0,117.0 L 159.0,117.0 L 160.0,116.0 L 161.0,116.0 L 161.0,116.0 L 162.0,115.0 L 163.0,115.0 L 163.0,115.0 L 164.0,114.0 L 165.0,114.0 L 165.0,114.0 L 166.0,113.0 L 167.0,113.0 L 167.0,113.0 L 168.0,112.0 L 169.0,112.0 L 169.0,112.0 L 170.0,111.0 L 171.0,111.0 L 171.0,111.0 L 172.0,110.0 L 173.0,110.0 L 173.0,110.0 L 174.0,109.0 L 175.0,109.0 L 175.0,109.0 L 176.0,108.0 L 177.0,108.0 L 177.0,108.0 L 178.0,107.0 L 179.0,107.0 L 179.0,107.0 L 180.0,106.0 L 181.0,106.0 L 181.0,106.0 L 182.0,105.0 L 183.0,105.0 L 183.0,105.0 L 184.0,104.0 L 185.0,104.0 L 185.0,104.0 L 186.0,103.0 L 186.0,103.0 L 187.0,102.0 L 188.0,102.0 L 188.0,102.0 L 189.0,101.0 L 190.0,101.0 L 191.0,101.0 L 191.0,101.0 L 192.0,100.0 L 193.0,100.0 L 193.0,100.0 L 194.0,99.0 L 195.0,99.0 L 195.0,99.0 L 196.0,98.0 L 197.0,98.0 L 197.0,98.0 L 198.0,97.0 L 199.0,97.0 L 199.0,97.0 L 200.0,96.0 L 201.0,96.0 L 202.0,96.0 L 202.0,96.0 L 203.0,95.0 L 204.0,95.0 L 205.0,95.0 L 205.0,95.0 L 206.0,94.0 L 207.0,94.0 L 207.0,94.0 L 208.0,93.0 L 209.0,93.0 L 209.0,93.0 L 210.0,92.0 L 211.0,92.0 L 212.0,92.0 L 213.0,92.0 L 213.0,92.0 L 214.0,91.0 L 214.0,91.0 L 215.0,90.0 L 216.0,90.0 L 216.0,90.0 L 217.0,89.0 L 218.0,89.0 L 219.0,89.0 L 219.0,89.0 L 220.0,88.0 L 221.0,88.0 L 221.0,88.0 L 222.0,87.0 L 223.0,87.0 L 224.0,87.0 L 225.0,87.0 L 225.0,87.0 L 226.0,86.0 L 227.0,86.0 L 227.0,86.0 L 228.0,85.0 L 229.0,85.0 L 230.0,85.0 L 231.0,85.0 L 231.0,85.0 L 232.0,84.0 L 233.0,84.0 L 234.0,84.0 L 234.0,84.0 L 235.0,83.0 L 236.0,83.0 L 237.0,83.0 L 237.0,83.0 L 238.0,82.0 L 239.0,82.0 L 240.0,82.0 L 240.0,82.0 L 241.0,81.0 L 242.0,81.0 L 243.0,81.0 L 243.0,81.0 L 244.0,80.0 L 245.0,80.0 L 246.0,80.0 L 247.0,80.0 L 247.0,80.0 L 248.0,79.0 L 249.0,79.0 L 250.0,79.0 L 250.0,79.0 L 251.0,78.0 L 252.0,78.0 L 253.0,78.0 L 254.0,78.0 L 254.0,78.0 L 255.0,77.0 L 256.0,77.0 L 257.0,77.0 L 257.0,77.0 L 258.0,76.0 L 259.0,76.0 L 260.0,76.0 L 261.0,76.0 L 261.0,76.0 L 262.0,75.0 L 263.0,75.0 L 264.0,75.0 L 265.0,75.0 L 265.0,75.0 L 266.0,74.0 L 267.0,74.0 L 268.0,74.0 L 268.0,74.0 L 269.0,73.0 L 270.0,73.0 L 271.0,73.0 L 272.0,73.0 L 272.0,73.0 L 273.0,72.0 L 274.0,72.0 L 275.0,72.0 L 276.0,72.0 L 276.0,72.0 L 277.0,71.0 L 278.0,71.0 L 279.0,71.0 L 280.0,71.0 L 280.0,71.0 L 281.0,70.0 L 282.0,70.0 L 283.0,70.0 L 284.0,70.0 L 285.0,70.0 L 285.0,70.0 L 286.0,69.0 L 287.0,69.0 L 288.0,69.0 L 289.0,69.0 L 289.0,69.0 L 290.0,68.0 L 291.0,68.0 L 292.0,68.0 L 293.0,68.0 L 294.0,68.0 L 294.0,68.0 L 295.0,67.0 L 296.0,67.0 L 297.0,67.0 L 298.0,67.0 L 299.0,67.0 L 299.0,67.0 L 300.0,66.0 L 301.0,66.0 L 302.0,66.0 L 303.0,66.0 L 304.0,66.0 L 304.0,66.0 L 305.0,65.0 L 306.0,65.0 L 307.0,65.0 L 308.0,65.0 L 309.0,65.0 L 309.0,65.0 L 310.0,64.0 L 311.0,64.0 L 312.0,64.0 L 313.0,64.0 L 314.0,64.0 L 315.0,64.0 L 315.0,64.0 L 316.0,63.0 L 317.0,63.0 L 318.0,63.0 L 319.0,63.0 L 320.0,63.0 L 321.0,63.0 L 321.0,63.0 L 322.0,62.0 L 323.0,62.0 L 324.0,62.0 L 325.0,62.0 L 326.0,62.0 L 327.0,62.0 L 328.0,62.0 L 328.0,62.0 L 329.0,61.0 L 330.0,61.0 L 331.0,61.0 L 332.0,61.0 L 333.0,61.0 L 334.0,61.0 L 335.0,61.0 L 335.0,61.0 L 336.0,60.0 L 337.0,60.0 L 338.0,60.0 L 339.0,60.0 L 340.0,60.0 L 341.0,60.0 L 342.0,60.0 L 343.0,60.0 L 344.0,60.0 L 344.0,60.0 L 345.0,59.0 L 346.0,59.0 L 347.0,59.0 L 348.0,59.0 L 349.0,59.0 L 350.0,59.0 L 351.0,59.0 L 352.0,59.0 L 353.0,59.0 L 354.0,59.0 L 355.0,59.0 L 356.0,59.0 L 357.0,59.0 L 358.0,59.0 L 359.0,59.0 L 359.0,59.0 L 360.0,58.0 L 361.0,58.0 L 362.0,58.0 L 363.0,58.0 L 364.0,58.0 L 365.0,58.0 L 366.0,58.0 L 367.0,58.0 L 368.0,58.0 L 369.0,58.0 L 370.0,58.0 L 371.0,58.0 L 372.0,58.0 L 373.0,58.0 L 374.0,58.0 L 375.0,58.0 L 376.0,58.0 L 377.0,58.0 L 378.0,58.0 L 379.0,58.0 L 380.0,58.0 L 381.0,58.0 L 382.0,58.0 L 383.0,58.0 L 384.0,58.0 L 385.0,58.0 L 386.0,58.0 L 387.0,58.0 L 388.0,58.0 L 389.0,58.0 L 390.0,58.0 L 391.0,58.0 L 392.0,58.0 L 393.0,58.0 L 394.0,58.0 L 395.0,58.0 L 396.0,58.0 L 397.0,58.0 L 398.0,58.0 L 399.0,58.0 L 400.0,58.0 L 401.0,58.0 L 402.0,58.0 L 403.0,58.0 L 404.0,58.0 L 405.0,58.0 L 406.0,58.0 L 407.0,58.0 L 408.0,58.0 L 409.0,58.0 L 410.0,58.0 L 411.0,58.0 L 412.0,58.0 L 413.0,58.0 L 414.0,58.0 L 415.0,58.0 L 416.0,58.0 L 417.0,58.0 L 418.0,58.0 L 419.0,59.0 L 419.0,59.0 L 420.0,59.0 L 421.0,59.0 L 422.0,59.0 L 423.0,59.0 L 424.0,59.0 L 425.0,59.0 L 426.0,59.0 L 427.0,60.0 L 427.0,60.0 L 428.0,60.0 L 429.0,60.0 L 430.0,60.0 L 431.0,60.0 L 432.0,60.0 L 433.0,60.0 L 434.0,61.0 L 434.0,61.0 L 435.0,61.0 L 436.0,61.0 L 437.0,61.0 L 438.0,61.0 L 439.0,61.0 L 440.0,61.0 L 441.0,61.0 L 442.0,62.0 L 442.0,62.0 L 443.0,62.0 L 444.0,62.0 L 445.0,62.0 L 446.0,62.0 L 447.0,62.0 L 448.0,62.0 L 449.0,62.0 L 450.0,62.0 L 451.0,62.0 L 452.0,63.0 L 452.0,63.0 L 453.0,63.0 L 454.0,63.0 L 455.0,63.0 L 456.0,63.0 L 457.0,63.0 L 458.0,63.0 L 459.0,63.0 L 460.0,63.0 L 461.0,63.0 L 462.0,64.0 L 462.0,64.0 L 463.0,64.0 L 464.0,64.0 L 465.0,64.0 L 466.0,64.0 L 467.0,64.0 L 468.0,65.0 L 468.0,65.0 L 469.0,65.0 L 470.0,65.0 L 471.0,65.0 L 472.0,65.0 L 473.0,65.0 L 474.0,66.0 L 474.0,66.0 L 475.0,66.0 L 476.0,66.0 L 477.0,66.0 L 478.0,66.0 L 479.0,66.0 L 480.0,67.0 L 480.0,67.0 L 481.0,67.0 L 482.0,67.0 L 483.0,67.0 L 484.0,68.0 L 484.0,68.0 L 485.0,68.0 L 486.0,68.0 L 487.0,68.0 L 488.0,69.0 L 488.0,69.0 L 489.0,69.0 L 490.0,69.0 L 491.0,69.0 L 492.0,69.0 L 493.0,70.0 L 493.0,70.0 L 494.0,70.0 L 495.0,70.0 L 496.0,70.0 L 497.0,71.0 L 497.0,71.0 L 498.0,71.0 L 499.0,72.0 L 499.0,72.0 L 500.0,72.0 L 501.0,72.0 L 502.0,72.0 L 503.0,73.0 L 503.0,73.0 L 504.0,73.0 L 505.0,73.0 L 506.0,73.0 L 507.0,74.0 L 507.0,74.0 L 508.0,74.0 L 509.0,74.0 L 510.0,74.0 L 511.0,74.0 L 512.0,75.0 L 512.0,75.0 L 513.0,75.0 L 514.0,75.0 L 515.0,75.0 L 516.0,76.0 L 516.0,76.0 L 517.0,76.0 L 518.0,76.0 L 519.0,76.0 L 520.0,77.0 L 520.0,77.0 L 521.0,77.0 L 522.0,77.0 L 523.0,77.0 L 524.0,78.0 L 524.0,78.0 L 525.0,78.0 L 526.0,78.0 L 527.0,79.0 L 527.0,79.0 L 528.0,79.0 L 529.0,79.0 L 530.0,79.0 L 531.0,80.0 L 531.0,80.0 L 532.0,80.0 L 533.0,81.0 L 533.0,81.0 L 534.0,81.0 L 535.0,82.0 L 535.0,82.0 L 536.0,82.0 L 537.0,82.0 L 538.0,83.0 L 538.0,83.0 L 539.0,83.0 L 540.0,83.0 L 541.0,83.0 L 542.0,83.0 L 543.0,84.0 L 543.0,84.0 L 544.0,84.0 L 545.0,84.0 L 546.0,85.0 L 546.0,85.0 L 547.0,85.0 L 548.0,85.0 L 549.0,86.0 L 549.0,86.0 L 550.0,86.0 L 551.0,87.0 L 551.0,87.0 L 552.0,87.0 L 553.0,88.0 L 553.0,88.0 L 554.0,88.0 L 555.0,89.0 L 555.0,89.0 L 556.0,89.0 L 557.0,89.0 L 558.0,90.0 L 558.0,90.0 L 559.0,90.0 L 560.0,91.0 L 560.0,91.0 L 561.0,91.0 L 562.0,91.0 L 563.0,92.0 L 563.0,92.0 L 564.0,92.0 L 565.0,92.0 L 566.0,93.0 L 566.0,93.0 L 567.0,93.0 L 568.0,94.0 L 568.0,94.0 L 569.0,94.0 L 570.0,95.0 L 570.0,95.0 L 571.0,95.0 L 572.0,95.0 L 573.0,96.0 L 573.0,96.0 L 574.0,96.0 L 575.0,97.0 L 575.0,97.0 L 576.0,97.0 L 577.0,97.0 L 578.0,98.0 L 578.0,98.0 L 579.0,98.0 L 580.0,99.0 L 580.0,99.0 L 581.0,99.0 L 582.0,100.0 L 582.0,100.0 L 583.0,100.0 L 584.0,100.0 L 585.0,101.0 L 585.0,101.0 L 586.0,101.0 L 587.0,102.0 L 587.0,102.0 L 588.0,102.0 L 589.0,103.0 L 589.0,103.0 L 590.0,103.0 L 591.0,104.0 L 591.0,104.0 L 592.0,104.0 L 593.0,105.0 L 593.0,105.0 L 594.0,105.0 L 595.0,105.0 L 596.0,106.0 L 596.0,106.0 L 597.0,106.0 L 598.0,107.0 L 598.0,107.0 L 599.0,107.0 L 600.0,108.0 L 600.0,108.0 L 601.0,108.0 L 602.0,109.0 L 602.0,109.0 L 603.0,109.0 L 604.0,110.0 L 604.0,110.0 L 605.0,110.0 L 606.0,111.0 L 606.0,111.0 L 607.0,111.0 L 608.0,112.0 L 608.0,112.0 L 609.0,112.0 L 610.0,113.0 L 610.0,113.0 L 611.0,114.0 L 611.0,114.0 L 612.0,114.0 L 613.0,115.0 L 613.0,115.0 L 614.0,115.0 L 615.0,116.0 L 615.0,116.0 L 616.0,116.0 L 617.0,117.0 L 617.0,117.0 L 618.0,117.0 L 619.0,118.0 L 619.0,118.0 L 620.0,118.0 L 621.0,119.0 L 621.0,119.0 L 622.0,119.0 L 623.0,120.0 L 623.0,120.0 L 624.0,121.0 L 624.0,121.0 L 625.0,121.0 L 626.0,122.0 L 626.0,122.0 L 627.0,122.0 L 628.0,123.0 L 628.0,123.0 L 629.0,123.0 L 630.0,124.0 L 630.0,124.0 L 631.0,125.0 L 631.0,125.0 L 632.0,125.0 L 633.0,126.0 L 633.0,126.0 L 634.0,126.0 L 635.0,127.0 L 635.0,127.0 L 636.0,128.0 L 636.0,128.0 L 637.0,128.0 L 638.0,129.0 L 638.0,129.0 L 639.0,129.0 L 640.0,130.0 L 640.0,130.0 L 641.0,131.0 L 641.0,131.0 L 642.0,131.0 L 643.0,132.0 L 643.0,132.0 L 644.0,133.0 L 644.0,133.0 L 645.0,133.0 L 646.0,134.0 L 646.0,134.0 L 647.0,135.0 L 647.0,135.0 L 648.0,135.0 L 649.0,136.0 L 649.0,136.0 L 650.0,136.0 L 651.0,137.0 L 651.0,137.0 L 652.0,138.0 L 652.0,138.0 L 653.0,138.0 L 654.0,139.0 L 654.0,139.0 L 655.0,140.0 L 655.0,140.0 L 656.0,140.0 L 657.0,141.0 L 657.0,141.0 L 658.0,142.0 L 658.0,142.0 L 659.0,142.0 L 660.0,143.0 L 660.0,143.0 L 661.0,144.0 L 661.0,144.0 L 662.0,145.0 L 662.0,145.0 L 663.0,145.0 L 664.0,146.0 L 664.0,146.0 L 665.0,147.0 L 665.0,147.0 L 666.0,147.0 L 667.0,148.0 L 667.0,148.0 L 668.0,149.0 L 668.0,149.0 L 669.0,150.0 L 669.0,150.0 L 670.0,150.0 L 671.0,151.0 L 671.0,151.0 L 672.0,152.0 L 672.0,152.0 L 673.0,153.0 L 673.0,153.0 L 674.0,153.0 L 675.0,154.0 L 675.0,154.0 L 676.0,155.0 L 676.0,155.0 L 677.0,156.0 L 677.0,156.0 L 678.0,156.0 L 679.0,157.0 L 679.0,157.0 L 680.0,158.0 L 680.0,158.0 L 681.0,159.0 L 681.0,159.0 L 682.0,159.0 L 683.0,160.0 L 683.0,160.0 L 684.0,161.0 L 684.0,161.0 L 685.0,162.0 L 685.0,162.0 L 686.0,163.0 L 686.0,163.0 L 687.0,163.0 L 688.0,164.0 L 688.0,164.0 L 689.0,165.0 L 689.0,165.0 L 690.0,166.0 L 690.0,166.0 L 691.0,167.0 L 691.0,167.0 L 692.0,167.0 L 693.0,168.0 L 693.0,168.0 L 694.0,169.0 L 694.0,169.0 L 695.0,170.0 L 695.0,170.0 L 696.0,171.0 L 696.0,171.0 L 697.0,172.0 L 697.0,172.0 L 698.0,173.0 L 698.0,173.0 L 699.0,173.0 L 700.0,174.0 L 700.0,174.0 L 701.0,175.0 L 701.0,175.0 L 702.0,176.0 L 702.0,176.0 L 703.0,177.0 L 703.0,177.0 L 704.0,178.0 L 704.0,178.0 L 705.0,179.0 L 705.0,180.0 L 705.0,180.0 L 706.0,181.0 L 706.0,182.0 L 706.0,183.0 L 706.0,183.0 L 707.0,184.0 L 707.0,185.0 L 707.0,186.0 L 707.0,187.0 L 707.0,188.0 L 707.0,189.0 L 707.0,189.0 L 708.0,190.0 L 708.0,191.0 L 708.0,192.0 L 708.0,193.0 L 708.0,194.0 L 707.0,195.0 L 707.0,195.0 L 707.0,196.0 L 707.0,197.0 L 707.0,198.0 L 707.0,199.0 L 706.0,200.0 L 706.0,200.0 L 706.0,201.0 L 706.0,202.0 L 705.0,203.0 L 705.0,203.0 L 705.0,204.0 L 704.0,205.0 L 704.0,205.0 L 704.0,206.0 L 703.0,207.0 L 703.0,207.0 L 702.0,208.0 L 702.0,208.0 L 701.0,209.0 L 701.0,209.0 L 700.0,210.0 L 700.0,210.0 L 699.0,211.0 L 699.0,211.0 L 698.0,212.0 L 698.0,212.0 L 697.0,213.0 L 697.0,213.0 L 696.0,214.0 L 695.0,214.0 L 695.0,214.0 L 694.0,215.0 L 694.0,215.0 L 693.0,216.0 L 692.0,216.0 L 692.0,216.0 L 691.0,217.0 L 690.0,217.0 L 690.0,217.0 L 689.0,218.0 Z" fill="#4B1C2F" stroke="none" /><path d="M 394.0,414.0 L 393.0,414.0 L 392.0,414.0 L 391.0,414.0 L 390.0,414.0 L 389.0,414.0 L 388.0,414.0 L 387.0,414.0 L 386.0,414.0 L 385.0,414.0 L 384.0,413.0 L 384.0,413.0 L 383.0,413.0 L 382.0,413.0 L 381.0,413.0 L 380.0,413.0 L 379.0,413.0 L 378.0,413.0 L 377.0,413.0 L 376.0,412.0 L 376.0,412.0 L 375.0,412.0 L 374.0,412.0 L 373.0,412.0 L 372.0,411.0 L 372.0,411.0 L 371.0,411.0 L 370.0,411.0 L 369.0,410.0 L 369.0,410.0 L 368.0,410.0 L 367.0,410.0 L 366.0,409.0 L 366.0,409.0 L 365.0,409.0 L 364.0,408.0 L 364.0,408.0 L 363.0,408.0 L 362.0,407.0 L 362.0,407.0 L 361.0,407.0 L 360.0,406.0 L 360.0,406.0 L 359.0,406.0 L 358.0,405.0 L 358.0,405.0 L 357.0,404.0 L 357.0,404.0 L 356.0,404.0 L 355.0,403.0 L 355.0,403.0 L 354.0,402.0 L 354.0,402.0 L 353.0,401.0 L 353.0,401.0 L 352.0,400.0 L 352.0,400.0 L 351.0,399.0 L 351.0,399.0 L 350.0,398.0 L 350.0,398.0 L 349.0,397.0 L 349.0,397.0 L 348.0,396.0 L 348.0,396.0 L 347.0,395.0 L 347.0,395.0 L 346.0,394.0 L 346.0,394.0 L 345.0,393.0 L 345.0,393.0 L 344.0,392.0 L 344.0,391.0 L 344.0,391.0 L 343.0,390.0 L 343.0,390.0 L 342.0,389.0 L 342.0,388.0 L 342.0,388.0 L 341.0,387.0 L 341.0,387.0 L 340.0,386.0 L 340.0,385.0 L 340.0,385.0 L 339.0,384.0 L 339.0,384.0 L 338.0,383.0 L 338.0,382.0 L 338.0,382.0 L 337.0,381.0 L 337.0,380.0 L 337.0,380.0 L 336.0,379.0 L 336.0,379.0 L 335.0,378.0 L 335.0,377.0 L 335.0,376.0 L 335.0,375.0 L 335.0,375.0 L 334.0,374.0 L 334.0,373.0 L 334.0,372.0 L 334.0,372.0 L 333.0,371.0 L 333.0,370.0 L 333.0,369.0 L 333.0,369.0 L 332.0,368.0 L 332.0,367.0 L 332.0,367.0 L 331.0,366.0 L 331.0,365.0 L 331.0,364.0 L 331.0,364.0 L 330.0,363.0 L 330.0,362.0 L 330.0,361.0 L 330.0,361.0 L 329.0,360.0 L 329.0,359.0 L 329.0,358.0 L 329.0,358.0 L 328.0,357.0 L 328.0,356.0 L 328.0,356.0 L 327.0,355.0 L 327.0,354.0 L 327.0,353.0 L 327.0,352.0 L 327.0,351.0 L 327.0,351.0 L 326.0,350.0 L 326.0,349.0 L 326.0,348.0 L 326.0,347.0 L 326.0,346.0 L 326.0,346.0 L 325.0,345.0 L 325.0,344.0 L 325.0,343.0 L 325.0,343.0 L 324.0,342.0 L 324.0,341.0 L 324.0,340.0 L 324.0,340.0 L 323.0,339.0 L 323.0,338.0 L 323.0,337.0 L 323.0,336.0 L 323.0,335.0 L 323.0,334.0 L 323.0,333.0 L 323.0,333.0 L 322.0,332.0 L 322.0,331.0 L 322.0,330.0 L 322.0,329.0 L 322.0,328.0 L 322.0,327.0 L 322.0,326.0 L 322.0,325.0 L 322.0,324.0 L 322.0,323.0 L 322.0,323.0 L 321.0,322.0 L 321.0,321.0 L 321.0,320.0 L 321.0,319.0 L 321.0,318.0 L 321.0,317.0 L 321.0,316.0 L 321.0,315.0 L 321.0,314.0 L 321.0,313.0 L 321.0,312.0 L 322.0,311.0 L 322.0,311.0 L 322.0,310.0 L 322.0,309.0 L 322.0,308.0 L 322.0,307.0 L 322.0,306.0 L 322.0,305.0 L 322.0,304.0 L 322.0,303.0 L 322.0,302.0 L 322.0,301.0 L 323.0,300.0 L 323.0,300.0 L 323.0,299.0 L 323.0,298.0 L 323.0,297.0 L 323.0,296.0 L 323.0,295.0 L 324.0,294.0 L 324.0,294.0 L 324.0,293.0 L 324.0,292.0 L 325.0,291.0 L 325.0,291.0 L 325.0,290.0 L 326.0,289.0 L 326.0,289.0 L 326.0,288.0 L 326.0,287.0 L 326.0,286.0 L 327.0,285.0 L 327.0,285.0 L 327.0,284.0 L 327.0,283.0 L 327.0,282.0 L 328.0,281.0 L 328.0,281.0 L 328.0,280.0 L 328.0,279.0 L 329.0,278.0 L 329.0,278.0 L 329.0,277.0 L 329.0,276.0 L 330.0,275.0 L 330.0,275.0 L 330.0,274.0 L 331.0,273.0 L 331.0,273.0 L 331.0,272.0 L 331.0,271.0 L 332.0,270.0 L 332.0,270.0 L 332.0,269.0 L 333.0,268.0 L 333.0,268.0 L 333.0,267.0 L 333.0,266.0 L 334.0,265.0 L 334.0,265.0 L 334.0,264.0 L 335.0,263.0 L 335.0,263.0 L 335.0,262.0 L 336.0,261.0 L 336.0,261.0 L 336.0,260.0 L 337.0,259.0 L 337.0,259.0 L 337.0,258.0 L 338.0,257.0 L 338.0,257.0 L 339.0,256.0 L 339.0,256.0 L 339.0,255.0 L 340.0,254.0 L 340.0,254.0 L 340.0,253.0 L 341.0,252.0 L 341.0,252.0 L 342.0,251.0 L 342.0,251.0 L 342.0,250.0 L 343.0,249.0 L 343.0,249.0 L 344.0,248.0 L 344.0,248.0 L 344.0,247.0 L 345.0,246.0 L 345.0,246.0 L 346.0,245.0 L 346.0,245.0 L 347.0,244.0 L 347.0,244.0 L 347.0,243.0 L 348.0,242.0 L 348.0,242.0 L 349.0,241.0 L 349.0,241.0 L 350.0,240.0 L 350.0,240.0 L 350.0,239.0 L 351.0,238.0 L 351.0,238.0 L 352.0,237.0 L 352.0,237.0 L 353.0,236.0 L 353.0,236.0 L 354.0,235.0 L 354.0,235.0 L 355.0,234.0 L 355.0,234.0 L 356.0,233.0 L 356.0,233.0 L 357.0,232.0 L 357.0,232.0 L 358.0,231.0 L 358.0,231.0 L 359.0,230.0 L 359.0,230.0 L 360.0,229.0 L 360.0,229.0 L 361.0,228.0 L 361.0,228.0 L 362.0,227.0 L 362.0,227.0 L 363.0,226.0 L 363.0,226.0 L 364.0,225.0 L 364.0,225.0 L 365.0,224.0 L 365.0,224.0 L 366.0,223.0 L 367.0,223.0 L 367.0,223.0 L 368.0,222.0 L 368.0,222.0 L 369.0,221.0 L 369.0,221.0 L 370.0,220.0 L 370.0,220.0 L 371.0,219.0 L 372.0,219.0 L 372.0,219.0 L 372.0,218.0 L 372.0,218.0 L 371.0,217.0 L 371.0,217.0 L 370.0,217.0 L 369.0,217.0 L 368.0,217.0 L 367.0,217.0 L 366.0,217.0 L 365.0,217.0 L 364.0,217.0 L 363.0,217.0 L 362.0,217.0 L 361.0,217.0 L 360.0,217.0 L 359.0,217.0 L 358.0,217.0 L 357.0,217.0 L 356.0,217.0 L 356.0,217.0 L 355.0,218.0 L 354.0,218.0 L 353.0,218.0 L 352.0,218.0 L 351.0,218.0 L 350.0,218.0 L 349.0,218.0 L 348.0,218.0 L 347.0,218.0 L 347.0,218.0 L 346.0,219.0 L 345.0,219.0 L 344.0,219.0 L 343.0,219.0 L 342.0,219.0 L 341.0,219.0 L 340.0,219.0 L 340.0,219.0 L 339.0,220.0 L 338.0,220.0 L 337.0,220.0 L 336.0,220.0 L 335.0,220.0 L 334.0,220.0 L 333.0,220.0 L 332.0,220.0 L 331.0,220.0 L 331.0,220.0 L 330.0,221.0 L 329.0,221.0 L 328.0,221.0 L 328.0,221.0 L 327.0,222.0 L 326.0,222.0 L 325.0,222.0 L 324.0,222.0 L 323.0,222.0 L 323.0,222.0 L 322.0,223.0 L 321.0,223.0 L 320.0,223.0 L 319.0,223.0 L 318.0,223.0 L 318.0,223.0 L 317.0,224.0 L 316.0,224.0 L 315.0,224.0 L 314.0,224.0 L 314.0,224.0 L 313.0,225.0 L 312.0,225.0 L 311.0,225.0 L 310.0,225.0 L 310.0,225.0 L 309.0,226.0 L 308.0,226.0 L 307.0,226.0 L 307.0,226.0 L 306.0,227.0 L 305.0,227.0 L 304.0,227.0 L 303.0,227.0 L 303.0,227.0 L 302.0,228.0 L 301.0,228.0 L 300.0,228.0 L 300.0,228.0 L 299.0,229.0 L 298.0,229.0 L 297.0,229.0 L 297.0,229.0 L 296.0,230.0 L 295.0,230.0 L 294.0,230.0 L 293.0,230.0 L 293.0,230.0 L 292.0,231.0 L 291.0,231.0 L 290.0,231.0 L 290.0,231.0 L 289.0,232.0 L 288.0,232.0 L 287.0,232.0 L 287.0,232.0 L 286.0,233.0 L 285.0,233.0 L 285.0,233.0 L 284.0,234.0 L 283.0,234.0 L 282.0,234.0 L 282.0,234.0 L 281.0,235.0 L 280.0,235.0 L 279.0,235.0 L 279.0,235.0 L 278.0,236.0 L 277.0,236.0 L 277.0,236.0 L 276.0,237.0 L 275.0,237.0 L 274.0,237.0 L 274.0,237.0 L 273.0,238.0 L 272.0,238.0 L 272.0,238.0 L 271.0,239.0 L 270.0,239.0 L 269.0,239.0 L 269.0,239.0 L 268.0,240.0 L 267.0,240.0 L 267.0,240.0 L 266.0,241.0 L 265.0,241.0 L 265.0,241.0 L 264.0,242.0 L 263.0,242.0 L 262.0,242.0 L 262.0,242.0 L 261.0,243.0 L 260.0,243.0 L 260.0,243.0 L 259.0,244.0 L 258.0,244.0 L 258.0,244.0 L 257.0,245.0 L 256.0,245.0 L 256.0,245.0 L 255.0,246.0 L 254.0,246.0 L 254.0,246.0 L 253.0,247.0 L 252.0,247.0 L 252.0,247.0 L 251.0,248.0 L 250.0,248.0 L 250.0,248.0 L 249.0,249.0 L 248.0,249.0 L 248.0,249.0 L 247.0,250.0 L 246.0,250.0 L 246.0,250.0 L 245.0,251.0 L 244.0,251.0 L 244.0,251.0 L 243.0,252.0 L 242.0,252.0 L 242.0,252.0 L 241.0,253.0 L 241.0,253.0 L 240.0,254.0 L 239.0,254.0 L 239.0,254.0 L 238.0,255.0 L 237.0,255.0 L 237.0,255.0 L 236.0,256.0 L 235.0,256.0 L 235.0,256.0 L 234.0,257.0 L 234.0,257.0 L 233.0,258.0 L 232.0,258.0 L 232.0,258.0 L 231.0,259.0 L 230.0,259.0 L 230.0,259.0 L 229.0,260.0 L 229.0,260.0 L 228.0,261.0 L 227.0,261.0 L 227.0,261.0 L 226.0,262.0 L 226.0,262.0 L 225.0,263.0 L 224.0,263.0 L 224.0,263.0 L 223.0,264.0 L 223.0,264.0 L 222.0,265.0 L 221.0,265.0 L 221.0,265.0 L 220.0,266.0 L 220.0,266.0 L 219.0,267.0 L 218.0,267.0 L 218.0,267.0 L 217.0,268.0 L 217.0,268.0 L 216.0,269.0 L 215.0,269.0 L 215.0,269.0 L 214.0,270.0 L 214.0,270.0 L 213.0,271.0 L 212.0,271.0 L 212.0,271.0 L 211.0,272.0 L 211.0,272.0 L 210.0,273.0 L 210.0,273.0 L 209.0,274.0 L 208.0,274.0 L 208.0,274.0 L 207.0,275.0 L 207.0,275.0 L 206.0,276.0 L 206.0,276.0 L 205.0,277.0 L 205.0,277.0 L 204.0,278.0 L 203.0,278.0 L 203.0,278.0 L 202.0,279.0 L 202.0,279.0 L 201.0,280.0 L 201.0,280.0 L 200.0,281.0 L 199.0,281.0 L 199.0,281.0 L 198.0,282.0 L 198.0,282.0 L 197.0,283.0 L 197.0,283.0 L 196.0,284.0 L 196.0,284.0 L 195.0,285.0 L 195.0,285.0 L 194.0,286.0 L 193.0,286.0 L 193.0,286.0 L 192.0,287.0 L 192.0,287.0 L 191.0,288.0 L 190.0,288.0 L 190.0,288.0 L 189.0,289.0 L 188.0,289.0 L 188.0,289.0 L 187.0,290.0 L 186.0,290.0 L 186.0,290.0 L 185.0,291.0 L 184.0,291.0 L 183.0,291.0 L 183.0,291.0 L 182.0,292.0 L 181.0,292.0 L 180.0,292.0 L 179.0,292.0 L 179.0,292.0 L 178.0,293.0 L 177.0,293.0 L 176.0,293.0 L 175.0,293.0 L 174.0,293.0 L 173.0,293.0 L 172.0,293.0 L 171.0,293.0 L 170.0,293.0 L 169.0,293.0 L 168.0,292.0 L 168.0,292.0 L 167.0,292.0 L 166.0,292.0 L 165.0,292.0 L 164.0,291.0 L 164.0,291.0 L 163.0,291.0 L 162.0,290.0 L 162.0,290.0 L 161.0,290.0 L 160.0,289.0 L 160.0,289.0 L 159.0,288.0 L 159.0,288.0 L 158.0,287.0 L 158.0,287.0 L 157.0,287.0 L 156.0,286.0 L 156.0,286.0 L 155.0,285.0 L 155.0,285.0 L 154.0,284.0 L 154.0,284.0 L 153.0,283.0 L 153.0,282.0 L 153.0,282.0 L 152.0,281.0 L 152.0,281.0 L 151.0,280.0 L 151.0,280.0 L 150.0,279.0 L 150.0,278.0 L 150.0,278.0 L 149.0,277.0 L 149.0,277.0 L 148.0,276.0 L 148.0,275.0 L 148.0,274.0 L 148.0,274.0 L 147.0,273.0 L 147.0,272.0 L 147.0,271.0 L 147.0,270.0 L 147.0,269.0 L 147.0,269.0 L 146.0,268.0 L 146.0,267.0 L 146.0,266.0 L 146.0,265.0 L 146.0,264.0 L 146.0,263.0 L 147.0,262.0 L 147.0,262.0 L 147.0,261.0 L 147.0,260.0 L 147.0,259.0 L 147.0,258.0 L 148.0,257.0 L 148.0,257.0 L 148.0,256.0 L 148.0,255.0 L 149.0,254.0 L 149.0,254.0 L 149.0,253.0 L 150.0,252.0 L 150.0,252.0 L 151.0,251.0 L 151.0,251.0 L 152.0,250.0 L 152.0,250.0 L 153.0,249.0 L 153.0,249.0 L 154.0,248.0 L 154.0,248.0 L 155.0,247.0 L 155.0,247.0 L 156.0,246.0 L 157.0,246.0 L 157.0,246.0 L 158.0,245.0 L 158.0,245.0 L 159.0,244.0 L 159.0,244.0 L 160.0,243.0 L 160.0,243.0 L 161.0,242.0 L 161.0,242.0 L 162.0,241.0 L 162.0,241.0 L 163.0,240.0 L 164.0,240.0 L 164.0,240.0 L 165.0,239.0 L 165.0,239.0 L 166.0,238.0 L 166.0,238.0 L 167.0,237.0 L 167.0,237.0 L 168.0,236.0 L 169.0,236.0 L 169.0,236.0 L 170.0,235.0 L 170.0,235.0 L 171.0,234.0 L 171.0,234.0 L 172.0,233.0 L 173.0,233.0 L 173.0,233.0 L 174.0,232.0 L 174.0,232.0 L 175.0,231.0 L 175.0,231.0 L 176.0,230.0 L 177.0,230.0 L 177.0,230.0 L 178.0,229.0 L 178.0,229.0 L 179.0,228.0 L 179.0,228.0 L 180.0,227.0 L 181.0,227.0 L 181.0,227.0 L 182.0,226.0 L 182.0,226.0 L 183.0,225.0 L 184.0,225.0 L 184.0,225.0 L 185.0,224.0 L 185.0,224.0 L 186.0,223.0 L 187.0,223.0 L 187.0,223.0 L 188.0,222.0 L 188.0,222.0 L 189.0,221.0 L 190.0,221.0 L 190.0,221.0 L 191.0,220.0 L 191.0,220.0 L 192.0,219.0 L 193.0,219.0 L 193.0,219.0 L 194.0,218.0 L 194.0,218.0 L 195.0,217.0 L 196.0,217.0 L 196.0,217.0 L 197.0,216.0 L 198.0,216.0 L 198.0,216.0 L 199.0,215.0 L 199.0,215.0 L 200.0,214.0 L 201.0,214.0 L 201.0,214.0 L 202.0,213.0 L 203.0,213.0 L 203.0,213.0 L 204.0,212.0 L 204.0,212.0 L 205.0,211.0 L 206.0,211.0 L 206.0,211.0 L 207.0,210.0 L 208.0,210.0 L 208.0,210.0 L 209.0,209.0 L 210.0,209.0 L 210.0,209.0 L 211.0,208.0 L 212.0,208.0 L 212.0,208.0 L 213.0,207.0 L 213.0,207.0 L 214.0,206.0 L 215.0,206.0 L 215.0,206.0 L 216.0,205.0 L 217.0,205.0 L 217.0,205.0 L 218.0,204.0 L 219.0,204.0 L 219.0,204.0 L 220.0,203.0 L 221.0,203.0 L 221.0,203.0 L 222.0,202.0 L 223.0,202.0 L 223.0,202.0 L 224.0,201.0 L 225.0,201.0 L 225.0,201.0 L 226.0,200.0 L 227.0,200.0 L 227.0,200.0 L 228.0,199.0 L 229.0,199.0 L 230.0,199.0 L 230.0,199.0 L 231.0,198.0 L 232.0,198.0 L 232.0,198.0 L 233.0,197.0 L 234.0,197.0 L 234.0,197.0 L 235.0,196.0 L 235.0,196.0 L 236.0,195.0 L 237.0,195.0 L 237.0,195.0 L 238.0,194.0 L 239.0,194.0 L 240.0,194.0 L 240.0,194.0 L 241.0,193.0 L 242.0,193.0 L 242.0,193.0 L 243.0,192.0 L 244.0,192.0 L 244.0,192.0 L 245.0,191.0 L 246.0,191.0 L 247.0,191.0 L 247.0,191.0 L 248.0,190.0 L 249.0,190.0 L 249.0,190.0 L 250.0,189.0 L 251.0,189.0 L 252.0,189.0 L 252.0,189.0 L 253.0,188.0 L 254.0,188.0 L 254.0,188.0 L 255.0,187.0 L 256.0,187.0 L 257.0,187.0 L 257.0,187.0 L 258.0,186.0 L 259.0,186.0 L 259.0,186.0 L 260.0,185.0 L 261.0,185.0 L 262.0,185.0 L 262.0,185.0 L 263.0,184.0 L 264.0,184.0 L 265.0,184.0 L 265.0,184.0 L 266.0,183.0 L 267.0,183.0 L 268.0,183.0 L 268.0,183.0 L 269.0,182.0 L 270.0,182.0 L 270.0,182.0 L 271.0,181.0 L 272.0,181.0 L 273.0,181.0 L 273.0,181.0 L 274.0,180.0 L 275.0,180.0 L 276.0,180.0 L 276.0,180.0 L 277.0,179.0 L 278.0,179.0 L 279.0,179.0 L 280.0,179.0 L 281.0,179.0 L 282.0,179.0 L 282.0,179.0 L 283.0,178.0 L 283.0,178.0 L 284.0,177.0 L 285.0,177.0 L 286.0,177.0 L 287.0,177.0 L 287.0,177.0 L 288.0,176.0 L 289.0,176.0 L 289.0,176.0 L 290.0,175.0 L 291.0,175.0 L 292.0,175.0 L 293.0,175.0 L 294.0,175.0 L 294.0,175.0 L 295.0,174.0 L 296.0,174.0 L 297.0,174.0 L 298.0,174.0 L 299.0,174.0 L 299.0,174.0 L 300.0,173.0 L 301.0,173.0 L 301.0,173.0 L 302.0,172.0 L 303.0,172.0 L 304.0,172.0 L 305.0,172.0 L 306.0,172.0 L 307.0,172.0 L 307.0,172.0 L 308.0,171.0 L 309.0,171.0 L 310.0,171.0 L 310.0,171.0 L 311.0,170.0 L 312.0,170.0 L 313.0,170.0 L 314.0,170.0 L 314.0,170.0 L 315.0,169.0 L 316.0,169.0 L 317.0,169.0 L 318.0,169.0 L 319.0,169.0 L 320.0,169.0 L 320.0,169.0 L 321.0,168.0 L 322.0,168.0 L 323.0,168.0 L 324.0,168.0 L 324.0,168.0 L 325.0,167.0 L 326.0,167.0 L 327.0,167.0 L 328.0,167.0 L 329.0,167.0 L 330.0,167.0 L 331.0,167.0 L 332.0,167.0 L 333.0,167.0 L 333.0,167.0 L 334.0,166.0 L 335.0,166.0 L 336.0,166.0 L 337.0,166.0 L 338.0,166.0 L 338.0,166.0 L 339.0,165.0 L 340.0,165.0 L 341.0,165.0 L 342.0,165.0 L 343.0,165.0 L 344.0,165.0 L 345.0,165.0 L 346.0,165.0 L 346.0,165.0 L 347.0,164.0 L 348.0,164.0 L 349.0,164.0 L 350.0,164.0 L 351.0,164.0 L 352.0,164.0 L 353.0,164.0 L 354.0,164.0 L 354.0,164.0 L 355.0,163.0 L 356.0,163.0 L 357.0,163.0 L 358.0,163.0 L 359.0,163.0 L 360.0,163.0 L 361.0,163.0 L 362.0,163.0 L 363.0,163.0 L 363.0,163.0 L 364.0,162.0 L 365.0,162.0 L 366.0,162.0 L 367.0,162.0 L 368.0,162.0 L 369.0,162.0 L 370.0,162.0 L 371.0,162.0 L 372.0,162.0 L 373.0,162.0 L 374.0,162.0 L 375.0,162.0 L 376.0,162.0 L 377.0,162.0 L 378.0,162.0 L 379.0,162.0 L 380.0,162.0 L 381.0,162.0 L 381.0,162.0 L 382.0,161.0 L 383.0,161.0 L 384.0,161.0 L 385.0,161.0 L 386.0,161.0 L 387.0,161.0 L 388.0,161.0 L 389.0,161.0 L 390.0,161.0 L 391.0,161.0 L 392.0,161.0 L 393.0,162.0 L 393.0,162.0 L 394.0,162.0 L 395.0,162.0 L 396.0,162.0 L 397.0,162.0 L 398.0,162.0 L 399.0,162.0 L 400.0,162.0 L 401.0,162.0 L 402.0,162.0 L 403.0,162.0 L 404.0,162.0 L 405.0,162.0 L 406.0,162.0 L 407.0,162.0 L 408.0,163.0 L 408.0,163.0 L 409.0,163.0 L 410.0,163.0 L 411.0,163.0 L 412.0,163.0 L 413.0,163.0 L 414.0,163.0 L 415.0,163.0 L 416.0,163.0 L 417.0,163.0 L 418.0,163.0 L 419.0,163.0 L 420.0,163.0 L 421.0,163.0 L 422.0,163.0 L 423.0,163.0 L 424.0,164.0 L 424.0,164.0 L 425.0,164.0 L 426.0,164.0 L 427.0,164.0 L 428.0,164.0 L 429.0,164.0 L 430.0,165.0 L 430.0,165.0 L 431.0,165.0 L 432.0,165.0 L 433.0,165.0 L 434.0,165.0 L 435.0,166.0 L 435.0,166.0 L 436.0,166.0 L 437.0,166.0 L 438.0,166.0 L 439.0,166.0 L 440.0,166.0 L 441.0,166.0 L 442.0,167.0 L 442.0,167.0 L 443.0,167.0 L 444.0,167.0 L 445.0,167.0 L 446.0,167.0 L 447.0,167.0 L 448.0,168.0 L 448.0,168.0 L 449.0,168.0 L 450.0,168.0 L 451.0,168.0 L 452.0,168.0 L 453.0,168.0 L 454.0,169.0 L 454.0,169.0 L 455.0,169.0 L 456.0,169.0 L 457.0,169.0 L 458.0,169.0 L 459.0,170.0 L 459.0,170.0 L 460.0,170.0 L 461.0,170.0 L 462.0,170.0 L 463.0,170.0 L 464.0,171.0 L 464.0,171.0 L 465.0,171.0 L 466.0,171.0 L 467.0,171.0 L 468.0,171.0 L 469.0,172.0 L 469.0,172.0 L 470.0,172.0 L 471.0,172.0 L 472.0,172.0 L 473.0,173.0 L 473.0,173.0 L 474.0,173.0 L 475.0,173.0 L 476.0,173.0 L 477.0,174.0 L 477.0,174.0 L 478.0,174.0 L 479.0,174.0 L 480.0,174.0 L 481.0,175.0 L 481.0,175.0 L 482.0,175.0 L 483.0,175.0 L 484.0,175.0 L 485.0,176.0 L 485.0,176.0 L 486.0,176.0 L 487.0,176.0 L 488.0,177.0 L 488.0,177.0 L 489.0,177.0 L 490.0,177.0 L 491.0,177.0 L 492.0,178.0 L 492.0,178.0 L 493.0,178.0 L 494.0,178.0 L 495.0,179.0 L 495.0,179.0 L 496.0,179.0 L 497.0,179.0 L 498.0,180.0 L 498.0,180.0 L 499.0,180.0 L 500.0,180.0 L 501.0,181.0 L 501.0,181.0 L 502.0,181.0 L 503.0,181.0 L 504.0,182.0 L 504.0,182.0 L 505.0,182.0 L 506.0,182.0 L 507.0,183.0 L 507.0,183.0 L 508.0,183.0 L 509.0,183.0 L 510.0,184.0 L 510.0,184.0 L 511.0,184.0 L 512.0,184.0 L 513.0,185.0 L 513.0,185.0 L 514.0,185.0 L 515.0,185.0 L 516.0,186.0 L 516.0,186.0 L 517.0,186.0 L 518.0,187.0 L 518.0,187.0 L 519.0,187.0 L 520.0,187.0 L 521.0,188.0 L 521.0,188.0 L 522.0,188.0 L 523.0,189.0 L 523.0,189.0 L 524.0,189.0 L 525.0,189.0 L 526.0,190.0 L 526.0,190.0 L 527.0,190.0 L 528.0,191.0 L 528.0,191.0 L 529.0,191.0 L 530.0,191.0 L 531.0,192.0 L 531.0,192.0 L 532.0,192.0 L 533.0,193.0 L 533.0,193.0 L 534.0,193.0 L 535.0,194.0 L 535.0,194.0 L 536.0,194.0 L 537.0,194.0 L 538.0,195.0 L 538.0,195.0 L 539.0,195.0 L 540.0,196.0 L 540.0,196.0 L 541.0,196.0 L 542.0,197.0 L 542.0,197.0 L 543.0,197.0 L 544.0,198.0 L 544.0,198.0 L 545.0,198.0 L 546.0,199.0 L 546.0,199.0 L 547.0,199.0 L 548.0,200.0 L 548.0,200.0 L 549.0,200.0 L 550.0,201.0 L 550.0,201.0 L 551.0,201.0 L 552.0,202.0 L 552.0,202.0 L 553.0,202.0 L 554.0,203.0 L 554.0,203.0 L 555.0,203.0 L 556.0,204.0 L 556.0,204.0 L 557.0,204.0 L 558.0,205.0 L 558.0,205.0 L 559.0,205.0 L 560.0,206.0 L 560.0,206.0 L 561.0,206.0 L 562.0,207.0 L 562.0,207.0 L 563.0,207.0 L 564.0,208.0 L 564.0,208.0 L 565.0,209.0 L 565.0,209.0 L 566.0,209.0 L 567.0,210.0 L 567.0,210.0 L 568.0,210.0 L 569.0,211.0 L 569.0,211.0 L 570.0,211.0 L 571.0,212.0 L 571.0,212.0 L 572.0,213.0 L 572.0,213.0 L 573.0,213.0 L 574.0,214.0 L 574.0,214.0 L 575.0,214.0 L 576.0,215.0 L 576.0,215.0 L 577.0,216.0 L 577.0,216.0 L 578.0,216.0 L 579.0,217.0 L 579.0,217.0 L 580.0,217.0 L 581.0,218.0 L 581.0,218.0 L 582.0,219.0 L 582.0,219.0 L 583.0,219.0 L 584.0,220.0 L 584.0,220.0 L 585.0,221.0 L 585.0,221.0 L 586.0,221.0 L 587.0,222.0 L 587.0,222.0 L 588.0,223.0 L 588.0,223.0 L 589.0,223.0 L 590.0,224.0 L 590.0,224.0 L 591.0,225.0 L 591.0,225.0 L 592.0,225.0 L 593.0,226.0 L 593.0,226.0 L 594.0,227.0 L 594.0,227.0 L 595.0,227.0 L 596.0,228.0 L 596.0,228.0 L 597.0,229.0 L 597.0,229.0 L 598.0,229.0 L 599.0,230.0 L 599.0,230.0 L 600.0,231.0 L 600.0,231.0 L 601.0,232.0 L 601.0,232.0 L 602.0,232.0 L 603.0,233.0 L 603.0,233.0 L 604.0,234.0 L 604.0,234.0 L 605.0,235.0 L 605.0,235.0 L 606.0,235.0 L 607.0,236.0 L 607.0,236.0 L 608.0,237.0 L 608.0,237.0 L 609.0,238.0 L 609.0,238.0 L 610.0,238.0 L 611.0,239.0 L 611.0,239.0 L 612.0,240.0 L 612.0,240.0 L 613.0,241.0 L 613.0,241.0 L 614.0,241.0 L 615.0,242.0 L 615.0,242.0 L 616.0,243.0 L 616.0,243.0 L 617.0,244.0 L 617.0,244.0 L 618.0,245.0 L 618.0,245.0 L 619.0,246.0 L 619.0,246.0 L 620.0,247.0 L 620.0,247.0 L 621.0,248.0 L 621.0,248.0 L 622.0,249.0 L 622.0,249.0 L 623.0,250.0 L 623.0,250.0 L 624.0,251.0 L 624.0,252.0 L 624.0,252.0 L 625.0,253.0 L 625.0,253.0 L 626.0,254.0 L 626.0,254.0 L 627.0,255.0 L 627.0,256.0 L 627.0,256.0 L 628.0,257.0 L 628.0,258.0 L 628.0,258.0 L 629.0,259.0 L 629.0,259.0 L 630.0,260.0 L 630.0,261.0 L 630.0,262.0 L 630.0,263.0 L 630.0,264.0 L 630.0,265.0 L 630.0,266.0 L 630.0,267.0 L 630.0,268.0 L 629.0,269.0 L 629.0,269.0 L 629.0,270.0 L 629.0,271.0 L 629.0,272.0 L 628.0,273.0 L 628.0,273.0 L 628.0,274.0 L 627.0,275.0 L 627.0,275.0 L 627.0,276.0 L 627.0,277.0 L 626.0,278.0 L 626.0,278.0 L 626.0,279.0 L 625.0,280.0 L 625.0,280.0 L 624.0,281.0 L 624.0,281.0 L 624.0,282.0 L 623.0,283.0 L 623.0,283.0 L 622.0,284.0 L 622.0,284.0 L 621.0,285.0 L 621.0,285.0 L 620.0,286.0 L 620.0,286.0 L 619.0,287.0 L 619.0,287.0 L 618.0,288.0 L 617.0,288.0 L 617.0,288.0 L 616.0,289.0 L 616.0,289.0 L 615.0,290.0 L 614.0,290.0 L 614.0,290.0 L 613.0,291.0 L 612.0,291.0 L 611.0,291.0 L 611.0,291.0 L 610.0,292.0 L 609.0,292.0 L 608.0,292.0 L 607.0,292.0 L 606.0,292.0 L 605.0,292.0 L 604.0,292.0 L 604.0,292.0 L 603.0,293.0 L 602.0,293.0 L 601.0,292.0 L 601.0,292.0 L 600.0,292.0 L 599.0,292.0 L 598.0,292.0 L 597.0,292.0 L 596.0,292.0 L 595.0,292.0 L 594.0,292.0 L 593.0,291.0 L 593.0,291.0 L 592.0,291.0 L 591.0,291.0 L 590.0,290.0 L 590.0,290.0 L 589.0,289.0 L 589.0,289.0 L 588.0,289.0 L 587.0,288.0 L 587.0,288.0 L 586.0,288.0 L 585.0,287.0 L 585.0,287.0 L 584.0,286.0 L 584.0,286.0 L 583.0,286.0 L 582.0,285.0 L 582.0,285.0 L 581.0,284.0 L 581.0,284.0 L 580.0,284.0 L 579.0,283.0 L 579.0,283.0 L 578.0,282.0 L 578.0,282.0 L 577.0,282.0 L 576.0,281.0 L 576.0,281.0 L 575.0,280.0 L 575.0,280.0 L 574.0,280.0 L 573.0,279.0 L 573.0,279.0 L 572.0,278.0 L 572.0,278.0 L 571.0,277.0 L 571.0,277.0 L 570.0,277.0 L 569.0,276.0 L 569.0,276.0 L 568.0,275.0 L 568.0,275.0 L 567.0,274.0 L 567.0,274.0 L 566.0,274.0 L 565.0,273.0 L 565.0,273.0 L 564.0,272.0 L 564.0,272.0 L 563.0,271.0 L 563.0,271.0 L 562.0,271.0 L 561.0,270.0 L 561.0,270.0 L 560.0,269.0 L 560.0,269.0 L 559.0,268.0 L 559.0,268.0 L 558.0,268.0 L 557.0,267.0 L 557.0,267.0 L 556.0,266.0 L 556.0,266.0 L 555.0,266.0 L 554.0,265.0 L 554.0,265.0 L 553.0,264.0 L 553.0,264.0 L 552.0,264.0 L 551.0,263.0 L 551.0,263.0 L 550.0,262.0 L 550.0,262.0 L 549.0,262.0 L 548.0,261.0 L 548.0,261.0 L 547.0,260.0 L 547.0,260.0 L 546.0,260.0 L 545.0,259.0 L 545.0,259.0 L 544.0,259.0 L 543.0,258.0 L 543.0,258.0 L 542.0,257.0 L 542.0,257.0 L 541.0,257.0 L 540.0,256.0 L 540.0,256.0 L 539.0,256.0 L 538.0,255.0 L 538.0,255.0 L 537.0,255.0 L 536.0,254.0 L 536.0,254.0 L 535.0,253.0 L 535.0,253.0 L 534.0,253.0 L 533.0,252.0 L 533.0,252.0 L 532.0,252.0 L 531.0,251.0 L 531.0,251.0 L 530.0,251.0 L 529.0,250.0 L 529.0,250.0 L 528.0,250.0 L 527.0,249.0 L 527.0,249.0 L 526.0,249.0 L 525.0,248.0 L 525.0,248.0 L 524.0,248.0 L 523.0,247.0 L 523.0,247.0 L 522.0,247.0 L 521.0,246.0 L 521.0,246.0 L 520.0,246.0 L 519.0,245.0 L 519.0,245.0 L 518.0,245.0 L 517.0,244.0 L 517.0,244.0 L 516.0,244.0 L 515.0,244.0 L 514.0,243.0 L 514.0,243.0 L 513.0,243.0 L 512.0,242.0 L 512.0,242.0 L 511.0,242.0 L 510.0,241.0 L 510.0,241.0 L 509.0,241.0 L 508.0,241.0 L 507.0,240.0 L 507.0,240.0 L 506.0,240.0 L 505.0,239.0 L 505.0,239.0 L 504.0,239.0 L 503.0,239.0 L 502.0,238.0 L 502.0,238.0 L 501.0,238.0 L 500.0,237.0 L 500.0,237.0 L 499.0,237.0 L 498.0,237.0 L 497.0,236.0 L 497.0,236.0 L 496.0,236.0 L 495.0,236.0 L 494.0,235.0 L 494.0,235.0 L 493.0,235.0 L 492.0,235.0 L 491.0,234.0 L 491.0,234.0 L 490.0,234.0 L 489.0,234.0 L 488.0,234.0 L 487.0,233.0 L 487.0,233.0 L 486.0,233.0 L 485.0,233.0 L 484.0,233.0 L 483.0,233.0 L 482.0,232.0 L 482.0,232.0 L 481.0,232.0 L 480.0,232.0 L 479.0,232.0 L 478.0,232.0 L 477.0,232.0 L 476.0,232.0 L 475.0,231.0 L 475.0,231.0 L 474.0,231.0 L 473.0,231.0 L 472.0,231.0 L 471.0,231.0 L 470.0,231.0 L 469.0,231.0 L 468.0,231.0 L 467.0,231.0 L 466.0,231.0 L 465.0,231.0 L 464.0,231.0 L 463.0,231.0 L 462.0,231.0 L 461.0,231.0 L 460.0,231.0 L 459.0,231.0 L 458.0,231.0 L 457.0,231.0 L 456.0,231.0 L 455.0,231.0 L 454.0,231.0 L 453.0,231.0 L 452.0,231.0 L 451.0,231.0 L 450.0,231.0 L 449.0,231.0 L 449.0,231.0 L 448.0,232.0 L 447.0,232.0 L 446.0,232.0 L 445.0,232.0 L 444.0,232.0 L 444.0,232.0 L 443.0,233.0 L 442.0,233.0 L 441.0,233.0 L 440.0,233.0 L 440.0,233.0 L 439.0,234.0 L 438.0,234.0 L 437.0,234.0 L 436.0,234.0 L 436.0,234.0 L 435.0,235.0 L 434.0,235.0 L 433.0,235.0 L 433.0,235.0 L 432.0,236.0 L 431.0,236.0 L 431.0,236.0 L 430.0,237.0 L 429.0,237.0 L 428.0,237.0 L 428.0,237.0 L 427.0,238.0 L 426.0,238.0 L 426.0,238.0 L 425.0,239.0 L 424.0,239.0 L 423.0,239.0 L 423.0,239.0 L 422.0,240.0 L 421.0,240.0 L 421.0,240.0 L 420.0,241.0 L 419.0,241.0 L 419.0,241.0 L 418.0,242.0 L 417.0,242.0 L 417.0,242.0 L 416.0,243.0 L 415.0,243.0 L 415.0,243.0 L 414.0,244.0 L 414.0,244.0 L 413.0,245.0 L 412.0,245.0 L 412.0,245.0 L 411.0,246.0 L 410.0,246.0 L 410.0,246.0 L 409.0,247.0 L 409.0,247.0 L 408.0,248.0 L 407.0,248.0 L 407.0,248.0 L 406.0,249.0 L 406.0,249.0 L 405.0,250.0 L 405.0,250.0 L 404.0,251.0 L 403.0,251.0 L 403.0,251.0 L 402.0,252.0 L 402.0,252.0 L 401.0,253.0 L 401.0,253.0 L 400.0,254.0 L 400.0,254.0 L 399.0,255.0 L 398.0,255.0 L 398.0,255.0 L 397.0,256.0 L 397.0,256.0 L 396.0,257.0 L 396.0,257.0 L 395.0,258.0 L 395.0,258.0 L 394.0,259.0 L 394.0,259.0 L 393.0,260.0 L 393.0,260.0 L 392.0,261.0 L 392.0,261.0 L 391.0,262.0 L 391.0,262.0 L 391.0,263.0 L 390.0,264.0 L 390.0,264.0 L 389.0,265.0 L 389.0,265.0 L 388.0,266.0 L 388.0,266.0 L 387.0,267.0 L 387.0,267.0 L 387.0,268.0 L 386.0,269.0 L 386.0,269.0 L 385.0,270.0 L 385.0,270.0 L 384.0,271.0 L 384.0,271.0 L 384.0,272.0 L 383.0,273.0 L 383.0,273.0 L 383.0,274.0 L 382.0,275.0 L 382.0,275.0 L 381.0,276.0 L 381.0,276.0 L 381.0,277.0 L 380.0,278.0 L 380.0,278.0 L 380.0,279.0 L 379.0,280.0 L 379.0,280.0 L 378.0,281.0 L 378.0,281.0 L 378.0,282.0 L 377.0,283.0 L 377.0,283.0 L 377.0,284.0 L 376.0,285.0 L 376.0,285.0 L 376.0,286.0 L 376.0,287.0 L 375.0,288.0 L 375.0,288.0 L 375.0,289.0 L 374.0,290.0 L 374.0,290.0 L 374.0,291.0 L 374.0,292.0 L 373.0,293.0 L 373.0,293.0 L 373.0,294.0 L 372.0,295.0 L 372.0,295.0 L 372.0,296.0 L 372.0,297.0 L 371.0,298.0 L 371.0,298.0 L 371.0,299.0 L 371.0,300.0 L 370.0,301.0 L 370.0,301.0 L 370.0,302.0 L 370.0,302.0 L 371.0,302.0 L 372.0,302.0 L 373.0,302.0 L 374.0,302.0 L 375.0,302.0 L 376.0,302.0 L 377.0,302.0 L 377.0,302.0 L 378.0,301.0 L 379.0,301.0 L 380.0,301.0 L 381.0,301.0 L 382.0,301.0 L 383.0,301.0 L 384.0,301.0 L 385.0,301.0 L 386.0,301.0 L 386.0,301.0 L 387.0,300.0 L 388.0,300.0 L 389.0,300.0 L 390.0,300.0 L 391.0,300.0 L 392.0,300.0 L 393.0,300.0 L 393.0,300.0 L 394.0,299.0 L 395.0,299.0 L 396.0,299.0 L 397.0,300.0 L 397.0,300.0 L 398.0,300.0 L 399.0,300.0 L 400.0,300.0 L 401.0,300.0 L 402.0,300.0 L 403.0,301.0 L 403.0,301.0 L 404.0,301.0 L 405.0,301.0 L 406.0,301.0 L 407.0,302.0 L 407.0,302.0 L 408.0,302.0 L 409.0,302.0 L 410.0,303.0 L 410.0,303.0 L 411.0,303.0 L 412.0,303.0 L 413.0,304.0 L 413.0,304.0 L 414.0,304.0 L 415.0,304.0 L 416.0,305.0 L 416.0,305.0 L 417.0,305.0 L 418.0,306.0 L 418.0,306.0 L 419.0,306.0 L 420.0,307.0 L 420.0,307.0 L 421.0,308.0 L 421.0,308.0 L 422.0,308.0 L 423.0,309.0 L 423.0,309.0 L 424.0,309.0 L 425.0,310.0 L 425.0,310.0 L 426.0,311.0 L 426.0,311.0 L 427.0,312.0 L 427.0,312.0 L 428.0,313.0 L 428.0,313.0 L 429.0,314.0 L 429.0,314.0 L 430.0,314.0 L 431.0,315.0 L 431.0,315.0 L 432.0,316.0 L 432.0,317.0 L 432.0,317.0 L 433.0,318.0 L 433.0,318.0 L 434.0,319.0 L 434.0,319.0 L 435.0,320.0 L 435.0,320.0 L 436.0,321.0 L 436.0,321.0 L 437.0,322.0 L 437.0,323.0 L 437.0,323.0 L 438.0,324.0 L 438.0,324.0 L 439.0,325.0 L 439.0,326.0 L 439.0,326.0 L 440.0,327.0 L 440.0,328.0 L 440.0,328.0 L 441.0,329.0 L 441.0,330.0 L 441.0,330.0 L 442.0,331.0 L 442.0,332.0 L 442.0,332.0 L 443.0,333.0 L 443.0,334.0 L 443.0,334.0 L 444.0,335.0 L 444.0,336.0 L 444.0,337.0 L 444.0,337.0 L 445.0,338.0 L 445.0,339.0 L 445.0,340.0 L 445.0,340.0 L 446.0,341.0 L 446.0,342.0 L 446.0,343.0 L 446.0,343.0 L 447.0,344.0 L 447.0,345.0 L 447.0,346.0 L 447.0,347.0 L 447.0,347.0 L 448.0,348.0 L 448.0,349.0 L 448.0,350.0 L 448.0,351.0 L 448.0,352.0 L 448.0,353.0 L 448.0,354.0 L 448.0,355.0 L 448.0,356.0 L 448.0,357.0 L 448.0,358.0 L 448.0,359.0 L 448.0,360.0 L 448.0,361.0 L 448.0,362.0 L 447.0,363.0 L 447.0,363.0 L 447.0,364.0 L 447.0,365.0 L 447.0,366.0 L 447.0,367.0 L 447.0,368.0 L 446.0,369.0 L 446.0,369.0 L 446.0,370.0 L 446.0,371.0 L 445.0,372.0 L 445.0,372.0 L 445.0,373.0 L 445.0,374.0 L 445.0,375.0 L 444.0,376.0 L 444.0,376.0 L 444.0,377.0 L 444.0,378.0 L 444.0,379.0 L 443.0,380.0 L 443.0,380.0 L 443.0,381.0 L 442.0,382.0 L 442.0,382.0 L 441.0,383.0 L 441.0,383.0 L 441.0,384.0 L 440.0,385.0 L 440.0,385.0 L 439.0,386.0 L 439.0,386.0 L 439.0,387.0 L 438.0,388.0 L 438.0,388.0 L 437.0,389.0 L 437.0,389.0 L 437.0,390.0 L 436.0,391.0 L 436.0,391.0 L 435.0,392.0 L 435.0,392.0 L 434.0,393.0 L 434.0,393.0 L 434.0,394.0 L 433.0,395.0 L 433.0,395.0 L 432.0,396.0 L 432.0,396.0 L 431.0,397.0 L 431.0,397.0 L 430.0,398.0 L 430.0,398.0 L 429.0,399.0 L 429.0,399.0 L 428.0,400.0 L 428.0,400.0 L 427.0,401.0 L 426.0,401.0 L 426.0,401.0 L 425.0,402.0 L 425.0,402.0 L 424.0,403.0 L 424.0,403.0 L 423.0,404.0 L 422.0,404.0 L 422.0,404.0 L 421.0,405.0 L 421.0,405.0 L 420.0,406.0 L 419.0,406.0 L 419.0,406.0 L 418.0,407.0 L 417.0,407.0 L 417.0,407.0 L 416.0,408.0 L 415.0,408.0 L 415.0,408.0 L 414.0,409.0 L 413.0,409.0 L 413.0,409.0 L 412.0,410.0 L 411.0,410.0 L 410.0,410.0 L 410.0,410.0 L 409.0,411.0 L 408.0,411.0 L 407.0,411.0 L 407.0,411.0 L 406.0,412.0 L 405.0,412.0 L 404.0,412.0 L 403.0,412.0 L 402.0,412.0 L 402.0,412.0 L 401.0,413.0 L 400.0,413.0 L 399.0,413.0 L 398.0,413.0 L 397.0,413.0 L 396.0,413.0 L 395.0,413.0 L 395.0,413.0 L 394.0,414.0 Z" fill="#4B1C2F" stroke="none" /><path d="M 253.0,414.0 L 252.0,414.0 L 251.0,414.0 L 250.0,414.0 L 249.0,414.0 L 248.0,414.0 L 247.0,414.0 L 246.0,414.0 L 245.0,414.0 L 244.0,414.0 L 243.0,414.0 L 242.0,414.0 L 241.0,414.0 L 240.0,414.0 L 239.0,414.0 L 238.0,414.0 L 237.0,414.0 L 236.0,414.0 L 235.0,414.0 L 234.0,414.0 L 233.0,414.0 L 232.0,414.0 L 231.0,414.0 L 230.0,413.0 L 230.0,413.0 L 229.0,413.0 L 228.0,413.0 L 227.0,413.0 L 226.0,412.0 L 226.0,412.0 L 225.0,412.0 L 224.0,412.0 L 223.0,411.0 L 223.0,411.0 L 222.0,411.0 L 221.0,410.0 L 221.0,410.0 L 220.0,410.0 L 219.0,409.0 L 219.0,409.0 L 218.0,409.0 L 217.0,408.0 L 217.0,408.0 L 216.0,408.0 L 215.0,407.0 L 215.0,407.0 L 214.0,407.0 L 213.0,406.0 L 213.0,406.0 L 212.0,405.0 L 212.0,405.0 L 211.0,405.0 L 210.0,404.0 L 210.0,404.0 L 209.0,403.0 L 209.0,403.0 L 208.0,402.0 L 208.0,402.0 L 207.0,402.0 L 206.0,401.0 L 206.0,401.0 L 205.0,400.0 L 205.0,400.0 L 204.0,399.0 L 204.0,399.0 L 203.0,398.0 L 203.0,398.0 L 202.0,397.0 L 202.0,397.0 L 201.0,396.0 L 201.0,396.0 L 200.0,395.0 L 200.0,395.0 L 199.0,394.0 L 199.0,394.0 L 198.0,393.0 L 198.0,393.0 L 197.0,392.0 L 197.0,391.0 L 197.0,391.0 L 196.0,390.0 L 196.0,390.0 L 195.0,389.0 L 195.0,388.0 L 195.0,388.0 L 194.0,387.0 L 194.0,386.0 L 194.0,386.0 L 193.0,385.0 L 193.0,385.0 L 192.0,384.0 L 192.0,383.0 L 192.0,383.0 L 191.0,382.0 L 191.0,381.0 L 191.0,380.0 L 191.0,380.0 L 190.0,379.0 L 190.0,378.0 L 190.0,377.0 L 190.0,377.0 L 189.0,376.0 L 189.0,375.0 L 189.0,374.0 L 189.0,374.0 L 188.0,373.0 L 188.0,372.0 L 188.0,371.0 L 188.0,370.0 L 188.0,370.0 L 187.0,369.0 L 187.0,368.0 L 187.0,367.0 L 187.0,366.0 L 187.0,365.0 L 187.0,364.0 L 187.0,363.0 L 187.0,363.0 L 186.0,362.0 L 186.0,361.0 L 186.0,360.0 L 186.0,359.0 L 186.0,358.0 L 186.0,357.0 L 186.0,356.0 L 186.0,355.0 L 186.0,354.0 L 186.0,353.0 L 186.0,352.0 L 186.0,351.0 L 186.0,350.0 L 187.0,349.0 L 187.0,349.0 L 187.0,348.0 L 187.0,347.0 L 187.0,346.0 L 187.0,345.0 L 188.0,344.0 L 188.0,344.0 L 188.0,343.0 L 188.0,342.0 L 188.0,341.0 L 189.0,340.0 L 189.0,340.0 L 189.0,339.0 L 190.0,338.0 L 190.0,338.0 L 190.0,337.0 L 191.0,336.0 L 191.0,336.0 L 191.0,335.0 L 192.0,334.0 L 192.0,334.0 L 192.0,333.0 L 193.0,332.0 L 193.0,332.0 L 193.0,331.0 L 194.0,330.0 L 194.0,330.0 L 194.0,329.0 L 195.0,328.0 L 195.0,328.0 L 195.0,327.0 L 196.0,326.0 L 196.0,326.0 L 196.0,325.0 L 197.0,324.0 L 197.0,324.0 L 198.0,323.0 L 198.0,323.0 L 199.0,322.0 L 199.0,322.0 L 199.0,321.0 L 200.0,320.0 L 200.0,320.0 L 201.0,319.0 L 201.0,319.0 L 202.0,318.0 L 202.0,318.0 L 203.0,317.0 L 203.0,317.0 L 204.0,316.0 L 204.0,316.0 L 205.0,315.0 L 205.0,315.0 L 206.0,314.0 L 206.0,314.0 L 207.0,313.0 L 207.0,313.0 L 208.0,312.0 L 208.0,312.0 L 209.0,311.0 L 210.0,311.0 L 210.0,311.0 L 211.0,310.0 L 211.0,310.0 L 212.0,309.0 L 213.0,309.0 L 213.0,309.0 L 214.0,308.0 L 214.0,308.0 L 215.0,307.0 L 216.0,307.0 L 216.0,307.0 L 217.0,306.0 L 218.0,306.0 L 218.0,306.0 L 219.0,305.0 L 220.0,305.0 L 221.0,305.0 L 221.0,305.0 L 222.0,304.0 L 223.0,304.0 L 223.0,304.0 L 224.0,303.0 L 225.0,303.0 L 226.0,303.0 L 227.0,303.0 L 227.0,303.0 L 228.0,302.0 L 229.0,302.0 L 230.0,302.0 L 231.0,302.0 L 231.0,302.0 L 232.0,301.0 L 233.0,301.0 L 234.0,301.0 L 235.0,301.0 L 236.0,301.0 L 237.0,301.0 L 238.0,301.0 L 239.0,301.0 L 239.0,301.0 L 240.0,300.0 L 241.0,300.0 L 242.0,300.0 L 243.0,300.0 L 244.0,300.0 L 245.0,300.0 L 246.0,300.0 L 247.0,300.0 L 248.0,300.0 L 249.0,300.0 L 250.0,301.0 L 250.0,301.0 L 251.0,301.0 L 252.0,301.0 L 253.0,301.0 L 254.0,301.0 L 255.0,301.0 L 256.0,301.0 L 257.0,301.0 L 258.0,302.0 L 258.0,302.0 L 259.0,302.0 L 260.0,302.0 L 261.0,302.0 L 262.0,303.0 L 262.0,303.0 L 263.0,303.0 L 264.0,303.0 L 265.0,304.0 L 265.0,304.0 L 266.0,304.0 L 267.0,304.0 L 268.0,305.0 L 268.0,305.0 L 269.0,305.0 L 270.0,305.0 L 271.0,306.0 L 271.0,306.0 L 272.0,306.0 L 273.0,307.0 L 273.0,307.0 L 274.0,307.0 L 275.0,308.0 L 275.0,308.0 L 276.0,309.0 L 276.0,309.0 L 277.0,309.0 L 278.0,310.0 L 278.0,310.0 L 279.0,311.0 L 279.0,311.0 L 280.0,311.0 L 281.0,312.0 L 281.0,312.0 L 282.0,313.0 L 282.0,313.0 L 283.0,314.0 L 283.0,314.0 L 284.0,315.0 L 284.0,315.0 L 285.0,316.0 L 285.0,316.0 L 286.0,317.0 L 286.0,317.0 L 287.0,318.0 L 287.0,318.0 L 288.0,319.0 L 288.0,319.0 L 289.0,320.0 L 289.0,320.0 L 290.0,321.0 L 290.0,321.0 L 291.0,322.0 L 291.0,323.0 L 291.0,323.0 L 292.0,324.0 L 292.0,324.0 L 293.0,325.0 L 293.0,325.0 L 294.0,326.0 L 294.0,327.0 L 294.0,327.0 L 295.0,328.0 L 295.0,329.0 L 295.0,329.0 L 296.0,330.0 L 296.0,331.0 L 296.0,331.0 L 297.0,332.0 L 297.0,333.0 L 297.0,333.0 L 298.0,334.0 L 298.0,335.0 L 298.0,335.0 L 299.0,336.0 L 299.0,337.0 L 299.0,337.0 L 300.0,338.0 L 300.0,339.0 L 300.0,339.0 L 301.0,340.0 L 301.0,341.0 L 301.0,342.0 L 301.0,343.0 L 301.0,343.0 L 302.0,344.0 L 302.0,345.0 L 302.0,346.0 L 302.0,347.0 L 302.0,348.0 L 302.0,349.0 L 302.0,350.0 L 302.0,351.0 L 302.0,352.0 L 302.0,353.0 L 302.0,353.0 L 303.0,354.0 L 303.0,355.0 L 303.0,356.0 L 303.0,357.0 L 302.0,358.0 L 302.0,358.0 L 302.0,359.0 L 302.0,360.0 L 302.0,361.0 L 302.0,362.0 L 302.0,363.0 L 302.0,364.0 L 302.0,365.0 L 302.0,366.0 L 302.0,367.0 L 301.0,368.0 L 301.0,368.0 L 301.0,369.0 L 301.0,370.0 L 301.0,371.0 L 300.0,372.0 L 300.0,372.0 L 300.0,373.0 L 300.0,374.0 L 300.0,375.0 L 299.0,376.0 L 299.0,376.0 L 299.0,377.0 L 299.0,378.0 L 298.0,379.0 L 298.0,379.0 L 298.0,380.0 L 297.0,381.0 L 297.0,381.0 L 296.0,382.0 L 296.0,382.0 L 296.0,383.0 L 295.0,384.0 L 295.0,384.0 L 295.0,385.0 L 294.0,386.0 L 294.0,386.0 L 293.0,387.0 L 293.0,387.0 L 293.0,388.0 L 292.0,389.0 L 292.0,389.0 L 291.0,390.0 L 291.0,390.0 L 290.0,391.0 L 290.0,391.0 L 290.0,392.0 L 289.0,393.0 L 289.0,393.0 L 288.0,394.0 L 288.0,394.0 L 287.0,395.0 L 287.0,395.0 L 286.0,396.0 L 286.0,396.0 L 285.0,397.0 L 285.0,397.0 L 284.0,398.0 L 284.0,398.0 L 283.0,399.0 L 283.0,399.0 L 282.0,400.0 L 282.0,400.0 L 281.0,401.0 L 281.0,401.0 L 280.0,402.0 L 279.0,402.0 L 279.0,402.0 L 278.0,403.0 L 278.0,403.0 L 277.0,404.0 L 276.0,404.0 L 276.0,404.0 L 275.0,405.0 L 275.0,405.0 L 274.0,406.0 L 273.0,406.0 L 273.0,406.0 L 272.0,407.0 L 272.0,407.0 L 271.0,408.0 L 270.0,408.0 L 270.0,408.0 L 269.0,409.0 L 268.0,409.0 L 267.0,409.0 L 267.0,409.0 L 266.0,410.0 L 265.0,410.0 L 265.0,410.0 L 264.0,411.0 L 263.0,411.0 L 262.0,411.0 L 262.0,411.0 L 261.0,412.0 L 260.0,412.0 L 259.0,412.0 L 259.0,412.0 L 258.0,413.0 L 257.0,413.0 L 256.0,413.0 L 255.0,413.0 L 254.0,413.0 L 254.0,413.0 L 253.0,414.0 Z" fill="#4B1C2F" stroke="none" /><path d="M 534.0,415.0 L 533.0,415.0 L 532.0,415.0 L 531.0,415.0 L 530.0,415.0 L 529.0,414.0 L 529.0,414.0 L 528.0,414.0 L 527.0,414.0 L 526.0,414.0 L 525.0,414.0 L 524.0,414.0 L 523.0,414.0 L 522.0,414.0 L 521.0,413.0 L 521.0,413.0 L 520.0,413.0 L 519.0,413.0 L 518.0,413.0 L 517.0,412.0 L 517.0,412.0 L 516.0,412.0 L 515.0,412.0 L 514.0,412.0 L 513.0,411.0 L 513.0,411.0 L 512.0,411.0 L 511.0,410.0 L 511.0,410.0 L 510.0,410.0 L 509.0,410.0 L 508.0,409.0 L 508.0,409.0 L 507.0,409.0 L 506.0,408.0 L 506.0,408.0 L 505.0,408.0 L 504.0,407.0 L 504.0,407.0 L 503.0,407.0 L 502.0,406.0 L 502.0,406.0 L 501.0,406.0 L 500.0,405.0 L 500.0,405.0 L 499.0,404.0 L 499.0,404.0 L 498.0,404.0 L 497.0,403.0 L 497.0,403.0 L 496.0,402.0 L 496.0,402.0 L 495.0,401.0 L 495.0,401.0 L 494.0,400.0 L 494.0,400.0 L 493.0,399.0 L 493.0,399.0 L 492.0,398.0 L 492.0,398.0 L 491.0,397.0 L 491.0,397.0 L 490.0,396.0 L 490.0,396.0 L 489.0,395.0 L 489.0,395.0 L 488.0,394.0 L 488.0,394.0 L 487.0,393.0 L 487.0,393.0 L 486.0,392.0 L 486.0,391.0 L 486.0,391.0 L 485.0,390.0 L 485.0,390.0 L 484.0,389.0 L 484.0,389.0 L 483.0,388.0 L 483.0,387.0 L 483.0,387.0 L 482.0,386.0 L 482.0,386.0 L 481.0,385.0 L 481.0,384.0 L 481.0,384.0 L 480.0,383.0 L 480.0,382.0 L 480.0,382.0 L 479.0,381.0 L 479.0,380.0 L 479.0,380.0 L 478.0,379.0 L 478.0,378.0 L 478.0,378.0 L 477.0,377.0 L 477.0,376.0 L 477.0,375.0 L 477.0,375.0 L 476.0,374.0 L 476.0,373.0 L 476.0,372.0 L 476.0,371.0 L 476.0,371.0 L 475.0,370.0 L 475.0,369.0 L 475.0,368.0 L 475.0,367.0 L 475.0,366.0 L 475.0,366.0 L 474.0,365.0 L 474.0,364.0 L 474.0,363.0 L 474.0,362.0 L 474.0,361.0 L 474.0,360.0 L 474.0,359.0 L 474.0,358.0 L 474.0,357.0 L 474.0,356.0 L 474.0,355.0 L 474.0,354.0 L 474.0,353.0 L 474.0,352.0 L 475.0,351.0 L 475.0,351.0 L 475.0,350.0 L 475.0,349.0 L 475.0,348.0 L 475.0,347.0 L 476.0,346.0 L 476.0,346.0 L 476.0,345.0 L 476.0,344.0 L 476.0,343.0 L 477.0,342.0 L 477.0,342.0 L 477.0,341.0 L 477.0,340.0 L 478.0,339.0 L 478.0,339.0 L 478.0,338.0 L 478.0,337.0 L 479.0,336.0 L 479.0,336.0 L 479.0,335.0 L 480.0,334.0 L 480.0,334.0 L 480.0,333.0 L 480.0,332.0 L 481.0,331.0 L 481.0,331.0 L 481.0,330.0 L 482.0,329.0 L 482.0,329.0 L 482.0,328.0 L 483.0,327.0 L 483.0,327.0 L 483.0,326.0 L 484.0,325.0 L 484.0,325.0 L 485.0,324.0 L 485.0,324.0 L 485.0,323.0 L 486.0,322.0 L 486.0,322.0 L 487.0,321.0 L 487.0,321.0 L 488.0,320.0 L 488.0,320.0 L 489.0,319.0 L 489.0,319.0 L 490.0,318.0 L 490.0,318.0 L 490.0,317.0 L 491.0,316.0 L 491.0,316.0 L 492.0,315.0 L 492.0,315.0 L 493.0,314.0 L 494.0,314.0 L 494.0,314.0 L 495.0,313.0 L 495.0,313.0 L 496.0,312.0 L 496.0,312.0 L 497.0,311.0 L 497.0,311.0 L 498.0,310.0 L 499.0,310.0 L 499.0,310.0 L 500.0,309.0 L 500.0,309.0 L 501.0,308.0 L 502.0,308.0 L 502.0,308.0 L 503.0,307.0 L 503.0,307.0 L 504.0,306.0 L 505.0,306.0 L 505.0,306.0 L 506.0,305.0 L 507.0,305.0 L 507.0,305.0 L 508.0,304.0 L 509.0,304.0 L 510.0,304.0 L 510.0,304.0 L 511.0,303.0 L 512.0,303.0 L 513.0,303.0 L 513.0,303.0 L 514.0,302.0 L 515.0,302.0 L 516.0,302.0 L 516.0,302.0 L 517.0,301.0 L 518.0,301.0 L 519.0,301.0 L 520.0,301.0 L 520.0,301.0 L 521.0,300.0 L 522.0,300.0 L 523.0,300.0 L 524.0,300.0 L 525.0,300.0 L 526.0,300.0 L 527.0,300.0 L 528.0,300.0 L 529.0,300.0 L 530.0,300.0 L 531.0,300.0 L 532.0,300.0 L 533.0,300.0 L 534.0,300.0 L 535.0,300.0 L 536.0,300.0 L 537.0,300.0 L 538.0,300.0 L 539.0,300.0 L 540.0,300.0 L 541.0,300.0 L 542.0,300.0 L 543.0,301.0 L 543.0,301.0 L 544.0,301.0 L 545.0,301.0 L 546.0,301.0 L 547.0,301.0 L 548.0,302.0 L 548.0,302.0 L 549.0,302.0 L 550.0,302.0 L 551.0,303.0 L 551.0,303.0 L 552.0,303.0 L 553.0,303.0 L 554.0,304.0 L 554.0,304.0 L 555.0,304.0 L 556.0,304.0 L 557.0,305.0 L 557.0,305.0 L 558.0,305.0 L 559.0,306.0 L 559.0,306.0 L 560.0,306.0 L 561.0,307.0 L 561.0,307.0 L 562.0,308.0 L 562.0,308.0 L 563.0,308.0 L 564.0,309.0 L 564.0,309.0 L 565.0,310.0 L 565.0,310.0 L 566.0,310.0 L 567.0,311.0 L 567.0,311.0 L 568.0,312.0 L 568.0,312.0 L 569.0,313.0 L 569.0,313.0 L 570.0,313.0 L 571.0,314.0 L 571.0,314.0 L 572.0,315.0 L 572.0,315.0 L 573.0,316.0 L 573.0,316.0 L 574.0,317.0 L 574.0,317.0 L 575.0,318.0 L 575.0,318.0 L 576.0,319.0 L 576.0,319.0 L 577.0,320.0 L 577.0,320.0 L 578.0,321.0 L 578.0,322.0 L 578.0,322.0 L 579.0,323.0 L 579.0,323.0 L 580.0,324.0 L 580.0,324.0 L 581.0,325.0 L 581.0,326.0 L 581.0,326.0 L 582.0,327.0 L 582.0,327.0 L 583.0,328.0 L 583.0,329.0 L 583.0,329.0 L 584.0,330.0 L 584.0,331.0 L 584.0,331.0 L 585.0,332.0 L 585.0,333.0 L 585.0,334.0 L 585.0,334.0 L 586.0,335.0 L 586.0,336.0 L 586.0,336.0 L 587.0,337.0 L 587.0,338.0 L 587.0,339.0 L 587.0,339.0 L 588.0,340.0 L 588.0,341.0 L 588.0,342.0 L 588.0,342.0 L 589.0,343.0 L 589.0,344.0 L 589.0,345.0 L 589.0,346.0 L 589.0,347.0 L 589.0,347.0 L 590.0,348.0 L 590.0,349.0 L 590.0,350.0 L 590.0,351.0 L 590.0,352.0 L 590.0,353.0 L 590.0,353.0 L 591.0,354.0 L 591.0,355.0 L 591.0,356.0 L 591.0,357.0 L 591.0,358.0 L 591.0,359.0 L 591.0,360.0 L 591.0,361.0 L 591.0,362.0 L 591.0,363.0 L 590.0,364.0 L 590.0,364.0 L 590.0,365.0 L 590.0,366.0 L 590.0,367.0 L 590.0,368.0 L 590.0,369.0 L 589.0,370.0 L 589.0,370.0 L 589.0,371.0 L 589.0,372.0 L 589.0,373.0 L 588.0,374.0 L 588.0,374.0 L 588.0,375.0 L 588.0,376.0 L 587.0,377.0 L 587.0,377.0 L 587.0,378.0 L 586.0,379.0 L 586.0,379.0 L 586.0,380.0 L 585.0,381.0 L 585.0,381.0 L 585.0,382.0 L 584.0,383.0 L 584.0,383.0 L 584.0,384.0 L 583.0,385.0 L 583.0,385.0 L 583.0,386.0 L 582.0,387.0 L 582.0,387.0 L 581.0,388.0 L 581.0,388.0 L 580.0,389.0 L 580.0,389.0 L 580.0,390.0 L 579.0,391.0 L 579.0,391.0 L 578.0,392.0 L 578.0,392.0 L 577.0,393.0 L 577.0,393.0 L 577.0,394.0 L 576.0,395.0 L 576.0,395.0 L 575.0,396.0 L 575.0,396.0 L 574.0,397.0 L 574.0,397.0 L 573.0,398.0 L 573.0,398.0 L 572.0,399.0 L 572.0,399.0 L 571.0,400.0 L 571.0,400.0 L 570.0,401.0 L 570.0,401.0 L 569.0,402.0 L 569.0,402.0 L 568.0,403.0 L 567.0,403.0 L 567.0,403.0 L 566.0,404.0 L 566.0,404.0 L 565.0,405.0 L 564.0,405.0 L 564.0,405.0 L 563.0,406.0 L 563.0,406.0 L 562.0,407.0 L 561.0,407.0 L 561.0,407.0 L 560.0,408.0 L 559.0,408.0 L 559.0,408.0 L 558.0,409.0 L 557.0,409.0 L 556.0,409.0 L 556.0,409.0 L 555.0,410.0 L 554.0,410.0 L 554.0,410.0 L 553.0,411.0 L 552.0,411.0 L 551.0,411.0 L 551.0,411.0 L 550.0,412.0 L 549.0,412.0 L 548.0,412.0 L 548.0,412.0 L 547.0,413.0 L 546.0,413.0 L 545.0,413.0 L 544.0,413.0 L 544.0,413.0 L 543.0,414.0 L 542.0,414.0 L 541.0,414.0 L 540.0,414.0 L 539.0,414.0 L 538.0,414.0 L 537.0,414.0 L 536.0,414.0 L 535.0,414.0 L 535.0,414.0 L 534.0,415.0 Z" fill="#4B1C2F" stroke="none" /><path d="M 317.0,535.0 L 316.0,535.0 L 315.0,535.0 L 314.0,535.0 L 313.0,535.0 L 312.0,535.0 L 311.0,534.0 L 311.0,534.0 L 310.0,534.0 L 309.0,534.0 L 308.0,534.0 L 307.0,534.0 L 306.0,533.0 L 306.0,533.0 L 305.0,533.0 L 304.0,533.0 L 303.0,533.0 L 302.0,533.0 L 301.0,532.0 L 301.0,532.0 L 300.0,532.0 L 299.0,532.0 L 298.0,532.0 L 297.0,531.0 L 297.0,531.0 L 296.0,531.0 L 295.0,531.0 L 294.0,530.0 L 294.0,530.0 L 293.0,529.0 L 293.0,529.0 L 292.0,529.0 L 291.0,528.0 L 291.0,528.0 L 290.0,528.0 L 289.0,527.0 L 289.0,527.0 L 288.0,526.0 L 288.0,526.0 L 287.0,526.0 L 286.0,525.0 L 286.0,525.0 L 285.0,524.0 L 285.0,524.0 L 284.0,524.0 L 283.0,523.0 L 283.0,523.0 L 282.0,522.0 L 282.0,522.0 L 281.0,522.0 L 280.0,521.0 L 280.0,521.0 L 279.0,520.0 L 279.0,520.0 L 278.0,519.0 L 278.0,519.0 L 277.0,518.0 L 277.0,518.0 L 276.0,517.0 L 276.0,517.0 L 275.0,516.0 L 275.0,516.0 L 274.0,515.0 L 274.0,515.0 L 273.0,514.0 L 273.0,514.0 L 272.0,513.0 L 272.0,513.0 L 271.0,512.0 L 271.0,512.0 L 270.0,511.0 L 270.0,510.0 L 270.0,510.0 L 269.0,509.0 L 269.0,509.0 L 268.0,508.0 L 268.0,507.0 L 268.0,507.0 L 267.0,506.0 L 267.0,506.0 L 266.0,505.0 L 266.0,504.0 L 266.0,504.0 L 265.0,503.0 L 265.0,502.0 L 265.0,502.0 L 264.0,501.0 L 264.0,500.0 L 264.0,500.0 L 263.0,499.0 L 263.0,498.0 L 263.0,497.0 L 263.0,497.0 L 262.0,496.0 L 262.0,495.0 L 262.0,494.0 L 262.0,494.0 L 261.0,493.0 L 261.0,492.0 L 261.0,491.0 L 261.0,490.0 L 261.0,489.0 L 261.0,489.0 L 260.0,488.0 L 260.0,487.0 L 260.0,486.0 L 260.0,485.0 L 260.0,484.0 L 260.0,483.0 L 260.0,482.0 L 260.0,481.0 L 260.0,480.0 L 260.0,480.0 L 259.0,479.0 L 259.0,478.0 L 259.0,477.0 L 259.0,476.0 L 259.0,475.0 L 259.0,474.0 L 260.0,473.0 L 260.0,473.0 L 260.0,472.0 L 260.0,471.0 L 260.0,470.0 L 260.0,469.0 L 260.0,468.0 L 260.0,467.0 L 261.0,466.0 L 261.0,466.0 L 261.0,465.0 L 261.0,464.0 L 262.0,463.0 L 262.0,463.0 L 262.0,462.0 L 262.0,461.0 L 263.0,460.0 L 263.0,460.0 L 263.0,459.0 L 263.0,458.0 L 264.0,457.0 L 264.0,457.0 L 264.0,456.0 L 265.0,455.0 L 265.0,455.0 L 265.0,454.0 L 266.0,453.0 L 266.0,453.0 L 266.0,452.0 L 267.0,451.0 L 267.0,451.0 L 267.0,450.0 L 268.0,449.0 L 268.0,449.0 L 268.0,448.0 L 269.0,447.0 L 269.0,447.0 L 270.0,446.0 L 270.0,446.0 L 270.0,445.0 L 271.0,444.0 L 271.0,444.0 L 272.0,443.0 L 272.0,443.0 L 273.0,442.0 L 273.0,442.0 L 273.0,441.0 L 274.0,440.0 L 274.0,440.0 L 275.0,439.0 L 275.0,439.0 L 276.0,438.0 L 276.0,438.0 L 277.0,437.0 L 277.0,437.0 L 278.0,436.0 L 278.0,436.0 L 279.0,435.0 L 279.0,435.0 L 280.0,434.0 L 280.0,434.0 L 281.0,433.0 L 281.0,433.0 L 282.0,432.0 L 283.0,432.0 L 283.0,432.0 L 284.0,431.0 L 284.0,431.0 L 285.0,430.0 L 286.0,430.0 L 286.0,430.0 L 287.0,429.0 L 287.0,429.0 L 288.0,428.0 L 289.0,428.0 L 289.0,428.0 L 290.0,427.0 L 291.0,427.0 L 291.0,427.0 L 292.0,426.0 L 293.0,426.0 L 293.0,426.0 L 294.0,425.0 L 295.0,425.0 L 295.0,425.0 L 296.0,424.0 L 297.0,424.0 L 298.0,424.0 L 298.0,424.0 L 299.0,423.0 L 300.0,423.0 L 301.0,423.0 L 302.0,423.0 L 302.0,423.0 L 303.0,422.0 L 304.0,422.0 L 305.0,422.0 L 306.0,422.0 L 307.0,422.0 L 307.0,422.0 L 308.0,421.0 L 309.0,421.0 L 310.0,421.0 L 311.0,421.0 L 312.0,421.0 L 313.0,421.0 L 314.0,421.0 L 315.0,421.0 L 316.0,421.0 L 317.0,421.0 L 318.0,421.0 L 318.0,421.0 L 319.0,420.0 L 320.0,420.0 L 321.0,420.0 L 322.0,420.0 L 323.0,421.0 L 323.0,421.0 L 324.0,421.0 L 325.0,421.0 L 326.0,421.0 L 327.0,421.0 L 328.0,421.0 L 329.0,421.0 L 330.0,421.0 L 331.0,422.0 L 331.0,422.0 L 332.0,422.0 L 333.0,422.0 L 334.0,423.0 L 334.0,423.0 L 335.0,423.0 L 336.0,423.0 L 337.0,424.0 L 337.0,424.0 L 338.0,424.0 L 339.0,425.0 L 339.0,425.0 L 340.0,425.0 L 341.0,426.0 L 341.0,426.0 L 342.0,426.0 L 343.0,426.0 L 344.0,427.0 L 344.0,427.0 L 345.0,428.0 L 345.0,428.0 L 346.0,428.0 L 347.0,429.0 L 347.0,429.0 L 348.0,429.0 L 349.0,430.0 L 349.0,430.0 L 350.0,431.0 L 350.0,431.0 L 351.0,431.0 L 352.0,432.0 L 352.0,432.0 L 353.0,433.0 L 353.0,433.0 L 354.0,434.0 L 354.0,434.0 L 355.0,435.0 L 355.0,435.0 L 356.0,435.0 L 357.0,436.0 L 357.0,436.0 L 358.0,437.0 L 358.0,437.0 L 359.0,438.0 L 359.0,439.0 L 359.0,439.0 L 360.0,440.0 L 360.0,440.0 L 361.0,441.0 L 361.0,441.0 L 362.0,442.0 L 362.0,442.0 L 363.0,443.0 L 363.0,444.0 L 363.0,444.0 L 364.0,445.0 L 364.0,445.0 L 365.0,446.0 L 365.0,447.0 L 365.0,447.0 L 366.0,448.0 L 366.0,448.0 L 367.0,449.0 L 367.0,450.0 L 367.0,450.0 L 368.0,451.0 L 368.0,452.0 L 368.0,453.0 L 368.0,453.0 L 369.0,454.0 L 369.0,455.0 L 369.0,455.0 L 370.0,456.0 L 370.0,457.0 L 370.0,458.0 L 370.0,458.0 L 371.0,459.0 L 371.0,460.0 L 371.0,461.0 L 371.0,461.0 L 372.0,462.0 L 372.0,463.0 L 372.0,464.0 L 372.0,465.0 L 372.0,466.0 L 372.0,466.0 L 373.0,467.0 L 373.0,468.0 L 373.0,469.0 L 373.0,470.0 L 373.0,471.0 L 373.0,472.0 L 373.0,473.0 L 373.0,474.0 L 373.0,474.0 L 374.0,475.0 L 374.0,476.0 L 374.0,477.0 L 374.0,478.0 L 374.0,479.0 L 374.0,480.0 L 374.0,481.0 L 374.0,482.0 L 374.0,483.0 L 373.0,484.0 L 373.0,484.0 L 373.0,485.0 L 373.0,486.0 L 373.0,487.0 L 373.0,488.0 L 373.0,489.0 L 373.0,490.0 L 372.0,491.0 L 372.0,491.0 L 372.0,492.0 L 372.0,493.0 L 372.0,494.0 L 371.0,495.0 L 371.0,495.0 L 371.0,496.0 L 371.0,497.0 L 370.0,498.0 L 370.0,498.0 L 370.0,499.0 L 370.0,500.0 L 369.0,501.0 L 369.0,501.0 L 369.0,502.0 L 368.0,503.0 L 368.0,503.0 L 368.0,504.0 L 367.0,505.0 L 367.0,505.0 L 367.0,506.0 L 366.0,507.0 L 366.0,507.0 L 365.0,508.0 L 365.0,508.0 L 365.0,509.0 L 364.0,510.0 L 364.0,510.0 L 363.0,511.0 L 363.0,511.0 L 363.0,512.0 L 362.0,513.0 L 362.0,513.0 L 361.0,514.0 L 361.0,514.0 L 360.0,515.0 L 360.0,515.0 L 359.0,516.0 L 359.0,516.0 L 358.0,517.0 L 358.0,517.0 L 357.0,518.0 L 357.0,518.0 L 356.0,519.0 L 356.0,519.0 L 355.0,520.0 L 355.0,520.0 L 354.0,521.0 L 354.0,521.0 L 353.0,522.0 L 352.0,522.0 L 352.0,522.0 L 351.0,523.0 L 351.0,523.0 L 350.0,524.0 L 350.0,524.0 L 349.0,525.0 L 348.0,525.0 L 348.0,525.0 L 347.0,526.0 L 346.0,526.0 L 346.0,526.0 L 345.0,527.0 L 345.0,527.0 L 344.0,528.0 L 343.0,528.0 L 343.0,528.0 L 342.0,529.0 L 341.0,529.0 L 341.0,529.0 L 340.0,530.0 L 339.0,530.0 L 338.0,530.0 L 338.0,530.0 L 337.0,531.0 L 336.0,531.0 L 336.0,531.0 L 335.0,532.0 L 334.0,532.0 L 333.0,532.0 L 332.0,532.0 L 332.0,532.0 L 331.0,533.0 L 330.0,533.0 L 329.0,533.0 L 328.0,533.0 L 327.0,533.0 L 326.0,533.0 L 326.0,533.0 L 325.0,534.0 L 324.0,534.0 L 323.0,534.0 L 322.0,534.0 L 321.0,534.0 L 320.0,534.0 L 319.0,534.0 L 318.0,534.0 L 318.0,534.0 L 317.0,535.0 Z" fill="#4B1C2F" stroke="none" /><path d="M 469.0,534.0 L 468.0,534.0 L 467.0,534.0 L 466.0,534.0 L 465.0,534.0 L 464.0,534.0 L 463.0,534.0 L 462.0,534.0 L 461.0,534.0 L 460.0,534.0 L 459.0,534.0 L 458.0,534.0 L 457.0,534.0 L 456.0,534.0 L 455.0,534.0 L 454.0,534.0 L 453.0,534.0 L 452.0,534.0 L 451.0,534.0 L 450.0,534.0 L 449.0,534.0 L 448.0,534.0 L 447.0,533.0 L 447.0,533.0 L 446.0,533.0 L 445.0,533.0 L 444.0,533.0 L 443.0,533.0 L 442.0,532.0 L 442.0,532.0 L 441.0,532.0 L 440.0,532.0 L 439.0,531.0 L 439.0,531.0 L 438.0,531.0 L 437.0,531.0 L 436.0,530.0 L 436.0,530.0 L 435.0,530.0 L 434.0,529.0 L 434.0,529.0 L 433.0,529.0 L 432.0,528.0 L 432.0,528.0 L 431.0,528.0 L 430.0,527.0 L 430.0,527.0 L 429.0,526.0 L 429.0,526.0 L 428.0,526.0 L 427.0,525.0 L 427.0,525.0 L 426.0,524.0 L 426.0,524.0 L 425.0,524.0 L 424.0,523.0 L 424.0,523.0 L 423.0,522.0 L 423.0,522.0 L 422.0,521.0 L 422.0,521.0 L 421.0,520.0 L 421.0,520.0 L 420.0,519.0 L 420.0,519.0 L 419.0,518.0 L 419.0,518.0 L 418.0,517.0 L 418.0,517.0 L 417.0,516.0 L 417.0,516.0 L 416.0,515.0 L 416.0,514.0 L 416.0,514.0 L 415.0,513.0 L 415.0,513.0 L 414.0,512.0 L 414.0,512.0 L 413.0,511.0 L 413.0,510.0 L 413.0,510.0 L 412.0,509.0 L 412.0,509.0 L 411.0,508.0 L 411.0,507.0 L 411.0,507.0 L 410.0,506.0 L 410.0,506.0 L 409.0,505.0 L 409.0,504.0 L 409.0,504.0 L 408.0,503.0 L 408.0,502.0 L 408.0,502.0 L 407.0,501.0 L 407.0,500.0 L 407.0,500.0 L 406.0,499.0 L 406.0,498.0 L 406.0,498.0 L 405.0,497.0 L 405.0,496.0 L 405.0,496.0 L 404.0,495.0 L 404.0,494.0 L 404.0,493.0 L 404.0,493.0 L 403.0,492.0 L 403.0,491.0 L 403.0,490.0 L 403.0,489.0 L 403.0,488.0 L 403.0,487.0 L 403.0,487.0 L 402.0,486.0 L 402.0,485.0 L 402.0,484.0 L 402.0,483.0 L 402.0,482.0 L 402.0,481.0 L 402.0,480.0 L 402.0,479.0 L 402.0,478.0 L 402.0,477.0 L 402.0,476.0 L 402.0,475.0 L 402.0,474.0 L 402.0,473.0 L 402.0,472.0 L 403.0,471.0 L 403.0,471.0 L 403.0,470.0 L 403.0,469.0 L 403.0,468.0 L 403.0,467.0 L 403.0,466.0 L 403.0,465.0 L 404.0,464.0 L 404.0,464.0 L 404.0,463.0 L 405.0,462.0 L 405.0,462.0 L 405.0,461.0 L 405.0,460.0 L 405.0,459.0 L 406.0,458.0 L 406.0,458.0 L 406.0,457.0 L 406.0,456.0 L 407.0,455.0 L 407.0,455.0 L 407.0,454.0 L 408.0,453.0 L 408.0,453.0 L 408.0,452.0 L 409.0,451.0 L 409.0,451.0 L 410.0,450.0 L 410.0,450.0 L 410.0,449.0 L 411.0,448.0 L 411.0,448.0 L 411.0,447.0 L 412.0,446.0 L 412.0,446.0 L 413.0,445.0 L 413.0,445.0 L 414.0,444.0 L 414.0,444.0 L 414.0,443.0 L 415.0,442.0 L 415.0,442.0 L 416.0,441.0 L 416.0,441.0 L 417.0,440.0 L 417.0,440.0 L 418.0,439.0 L 418.0,439.0 L 418.0,438.0 L 419.0,437.0 L 419.0,437.0 L 420.0,436.0 L 420.0,436.0 L 421.0,435.0 L 421.0,435.0 L 422.0,434.0 L 422.0,434.0 L 423.0,433.0 L 424.0,433.0 L 424.0,433.0 L 425.0,432.0 L 425.0,432.0 L 426.0,431.0 L 426.0,431.0 L 427.0,430.0 L 427.0,430.0 L 428.0,429.0 L 429.0,429.0 L 429.0,429.0 L 430.0,428.0 L 430.0,428.0 L 431.0,427.0 L 432.0,427.0 L 432.0,427.0 L 433.0,426.0 L 434.0,426.0 L 434.0,426.0 L 435.0,425.0 L 436.0,425.0 L 436.0,425.0 L 437.0,424.0 L 438.0,424.0 L 438.0,424.0 L 439.0,423.0 L 440.0,423.0 L 441.0,423.0 L 441.0,423.0 L 442.0,422.0 L 443.0,422.0 L 444.0,422.0 L 445.0,422.0 L 445.0,422.0 L 446.0,421.0 L 447.0,421.0 L 448.0,421.0 L 449.0,421.0 L 450.0,421.0 L 451.0,421.0 L 451.0,421.0 L 452.0,420.0 L 453.0,420.0 L 454.0,420.0 L 455.0,420.0 L 456.0,420.0 L 457.0,420.0 L 458.0,420.0 L 459.0,420.0 L 460.0,420.0 L 461.0,420.0 L 462.0,420.0 L 463.0,421.0 L 463.0,421.0 L 464.0,421.0 L 465.0,421.0 L 466.0,421.0 L 467.0,421.0 L 468.0,421.0 L 469.0,421.0 L 470.0,422.0 L 470.0,422.0 L 471.0,422.0 L 472.0,422.0 L 473.0,422.0 L 474.0,422.0 L 475.0,423.0 L 475.0,423.0 L 476.0,423.0 L 477.0,423.0 L 478.0,424.0 L 478.0,424.0 L 479.0,424.0 L 480.0,424.0 L 481.0,424.0 L 482.0,425.0 L 482.0,425.0 L 483.0,425.0 L 484.0,426.0 L 484.0,426.0 L 485.0,426.0 L 486.0,427.0 L 486.0,427.0 L 487.0,428.0 L 487.0,428.0 L 488.0,428.0 L 489.0,429.0 L 489.0,429.0 L 490.0,429.0 L 491.0,430.0 L 491.0,430.0 L 492.0,431.0 L 492.0,431.0 L 493.0,431.0 L 494.0,432.0 L 494.0,432.0 L 495.0,433.0 L 495.0,433.0 L 496.0,434.0 L 496.0,434.0 L 497.0,435.0 L 497.0,435.0 L 498.0,435.0 L 499.0,436.0 L 499.0,436.0 L 500.0,437.0 L 500.0,437.0 L 501.0,438.0 L 501.0,438.0 L 502.0,439.0 L 502.0,439.0 L 503.0,440.0 L 503.0,440.0 L 504.0,441.0 L 504.0,442.0 L 504.0,442.0 L 505.0,443.0 L 505.0,443.0 L 506.0,444.0 L 506.0,444.0 L 507.0,445.0 L 507.0,445.0 L 508.0,446.0 L 508.0,447.0 L 508.0,447.0 L 509.0,448.0 L 509.0,448.0 L 510.0,449.0 L 510.0,450.0 L 510.0,450.0 L 511.0,451.0 L 511.0,452.0 L 511.0,452.0 L 512.0,453.0 L 512.0,454.0 L 512.0,454.0 L 513.0,455.0 L 513.0,456.0 L 513.0,457.0 L 513.0,457.0 L 514.0,458.0 L 514.0,459.0 L 514.0,460.0 L 514.0,460.0 L 515.0,461.0 L 515.0,462.0 L 515.0,463.0 L 515.0,464.0 L 515.0,464.0 L 516.0,465.0 L 516.0,466.0 L 516.0,467.0 L 516.0,468.0 L 516.0,469.0 L 516.0,470.0 L 516.0,470.0 L 517.0,471.0 L 517.0,472.0 L 517.0,473.0 L 517.0,474.0 L 517.0,475.0 L 517.0,476.0 L 517.0,477.0 L 517.0,478.0 L 517.0,479.0 L 517.0,480.0 L 517.0,481.0 L 517.0,482.0 L 516.0,483.0 L 516.0,483.0 L 516.0,484.0 L 516.0,485.0 L 516.0,486.0 L 516.0,487.0 L 516.0,488.0 L 516.0,489.0 L 516.0,490.0 L 515.0,491.0 L 515.0,491.0 L 515.0,492.0 L 515.0,493.0 L 514.0,494.0 L 514.0,494.0 L 514.0,495.0 L 514.0,496.0 L 513.0,497.0 L 513.0,497.0 L 513.0,498.0 L 512.0,499.0 L 512.0,499.0 L 512.0,500.0 L 512.0,501.0 L 511.0,502.0 L 511.0,502.0 L 511.0,503.0 L 510.0,504.0 L 510.0,504.0 L 509.0,505.0 L 509.0,505.0 L 509.0,506.0 L 508.0,507.0 L 508.0,507.0 L 508.0,508.0 L 507.0,509.0 L 507.0,509.0 L 506.0,510.0 L 506.0,510.0 L 505.0,511.0 L 505.0,511.0 L 505.0,512.0 L 504.0,513.0 L 504.0,513.0 L 503.0,514.0 L 503.0,514.0 L 502.0,515.0 L 502.0,515.0 L 501.0,516.0 L 501.0,516.0 L 500.0,517.0 L 500.0,517.0 L 499.0,518.0 L 499.0,518.0 L 498.0,519.0 L 498.0,519.0 L 497.0,520.0 L 497.0,520.0 L 496.0,521.0 L 496.0,521.0 L 495.0,522.0 L 495.0,522.0 L 494.0,523.0 L 493.0,523.0 L 493.0,523.0 L 492.0,524.0 L 492.0,524.0 L 491.0,525.0 L 490.0,525.0 L 490.0,525.0 L 489.0,526.0 L 489.0,526.0 L 488.0,527.0 L 487.0,527.0 L 487.0,527.0 L 486.0,528.0 L 485.0,528.0 L 485.0,528.0 L 484.0,529.0 L 483.0,529.0 L 483.0,529.0 L 482.0,530.0 L 481.0,530.0 L 480.0,530.0 L 480.0,530.0 L 479.0,531.0 L 478.0,531.0 L 478.0,531.0 L 477.0,532.0 L 476.0,532.0 L 475.0,532.0 L 475.0,532.0 L 474.0,533.0 L 473.0,533.0 L 472.0,533.0 L 471.0,533.0 L 470.0,533.0 L 470.0,533.0 L 469.0,534.0 Z" fill="#4B1C2F" stroke="none" /><path d="M 394.0,654.0 L 393.0,654.0 L 392.0,654.0 L 391.0,654.0 L 390.0,654.0 L 389.0,654.0 L 388.0,654.0 L 387.0,654.0 L 386.0,654.0 L 385.0,654.0 L 384.0,654.0 L 383.0,654.0 L 382.0,654.0 L 381.0,654.0 L 380.0,654.0 L 379.0,654.0 L 378.0,653.0 L 378.0,653.0 L 377.0,653.0 L 376.0,653.0 L 375.0,653.0 L 374.0,653.0 L 373.0,652.0 L 373.0,652.0 L 372.0,652.0 L 371.0,652.0 L 370.0,651.0 L 370.0,651.0 L 369.0,651.0 L 368.0,651.0 L 367.0,650.0 L 367.0,650.0 L 366.0,650.0 L 365.0,649.0 L 365.0,649.0 L 364.0,649.0 L 363.0,648.0 L 363.0,648.0 L 362.0,648.0 L 361.0,647.0 L 361.0,647.0 L 360.0,647.0 L 359.0,646.0 L 359.0,646.0 L 358.0,646.0 L 357.0,645.0 L 357.0,645.0 L 356.0,644.0 L 356.0,644.0 L 355.0,643.0 L 355.0,643.0 L 354.0,643.0 L 353.0,642.0 L 353.0,642.0 L 352.0,641.0 L 352.0,641.0 L 351.0,640.0 L 351.0,640.0 L 350.0,639.0 L 350.0,639.0 L 349.0,638.0 L 349.0,638.0 L 348.0,637.0 L 348.0,637.0 L 347.0,636.0 L 347.0,636.0 L 346.0,635.0 L 346.0,635.0 L 345.0,634.0 L 345.0,634.0 L 344.0,633.0 L 344.0,633.0 L 343.0,632.0 L 343.0,632.0 L 342.0,631.0 L 342.0,630.0 L 342.0,630.0 L 341.0,629.0 L 341.0,629.0 L 340.0,628.0 L 340.0,627.0 L 340.0,627.0 L 339.0,626.0 L 339.0,626.0 L 338.0,625.0 L 338.0,625.0 L 337.0,624.0 L 337.0,624.0 L 336.0,623.0 L 336.0,622.0 L 336.0,621.0 L 336.0,620.0 L 336.0,620.0 L 335.0,619.0 L 335.0,618.0 L 335.0,617.0 L 335.0,617.0 L 334.0,616.0 L 334.0,615.0 L 334.0,615.0 L 333.0,614.0 L 333.0,613.0 L 333.0,613.0 L 332.0,612.0 L 332.0,611.0 L 332.0,610.0 L 332.0,609.0 L 332.0,608.0 L 332.0,608.0 L 331.0,607.0 L 331.0,606.0 L 331.0,605.0 L 331.0,604.0 L 331.0,603.0 L 331.0,602.0 L 331.0,601.0 L 331.0,600.0 L 331.0,599.0 L 331.0,598.0 L 331.0,597.0 L 331.0,596.0 L 331.0,595.0 L 331.0,594.0 L 331.0,593.0 L 331.0,592.0 L 331.0,591.0 L 331.0,590.0 L 331.0,589.0 L 331.0,588.0 L 331.0,587.0 L 332.0,586.0 L 332.0,586.0 L 332.0,585.0 L 332.0,584.0 L 332.0,583.0 L 333.0,582.0 L 333.0,582.0 L 333.0,581.0 L 333.0,580.0 L 333.0,579.0 L 334.0,578.0 L 334.0,578.0 L 334.0,577.0 L 334.0,576.0 L 335.0,575.0 L 335.0,575.0 L 335.0,574.0 L 336.0,573.0 L 336.0,573.0 L 336.0,572.0 L 337.0,571.0 L 337.0,571.0 L 337.0,570.0 L 338.0,569.0 L 338.0,569.0 L 338.0,568.0 L 339.0,567.0 L 339.0,567.0 L 339.0,566.0 L 340.0,565.0 L 340.0,565.0 L 341.0,564.0 L 341.0,564.0 L 341.0,563.0 L 342.0,562.0 L 342.0,562.0 L 343.0,561.0 L 343.0,561.0 L 344.0,560.0 L 344.0,560.0 L 345.0,559.0 L 345.0,559.0 L 345.0,558.0 L 346.0,557.0 L 346.0,557.0 L 347.0,556.0 L 347.0,556.0 L 348.0,555.0 L 348.0,555.0 L 349.0,554.0 L 349.0,554.0 L 350.0,553.0 L 350.0,553.0 L 351.0,552.0 L 352.0,552.0 L 352.0,552.0 L 353.0,551.0 L 353.0,551.0 L 354.0,550.0 L 354.0,550.0 L 355.0,549.0 L 355.0,549.0 L 356.0,548.0 L 357.0,548.0 L 357.0,548.0 L 358.0,547.0 L 359.0,547.0 L 359.0,547.0 L 360.0,546.0 L 361.0,546.0 L 361.0,546.0 L 362.0,545.0 L 362.0,545.0 L 363.0,544.0 L 364.0,544.0 L 364.0,544.0 L 365.0,543.0 L 366.0,543.0 L 367.0,543.0 L 368.0,543.0 L 368.0,543.0 L 369.0,542.0 L 370.0,542.0 L 371.0,542.0 L 371.0,542.0 L 372.0,541.0 L 373.0,541.0 L 374.0,541.0 L 374.0,541.0 L 375.0,540.0 L 376.0,540.0 L 377.0,540.0 L 378.0,540.0 L 379.0,540.0 L 379.0,540.0 L 380.0,539.0 L 381.0,539.0 L 382.0,539.0 L 383.0,539.0 L 384.0,539.0 L 385.0,539.0 L 386.0,539.0 L 387.0,539.0 L 388.0,539.0 L 389.0,539.0 L 390.0,539.0 L 391.0,539.0 L 392.0,539.0 L 393.0,539.0 L 394.0,539.0 L 395.0,539.0 L 396.0,540.0 L 396.0,540.0 L 397.0,540.0 L 398.0,540.0 L 399.0,540.0 L 400.0,541.0 L 400.0,541.0 L 401.0,541.0 L 402.0,542.0 L 402.0,542.0 L 403.0,542.0 L 404.0,542.0 L 405.0,543.0 L 405.0,543.0 L 406.0,543.0 L 407.0,543.0 L 408.0,544.0 L 408.0,544.0 L 409.0,544.0 L 410.0,544.0 L 411.0,545.0 L 411.0,545.0 L 412.0,545.0 L 413.0,546.0 L 413.0,546.0 L 414.0,546.0 L 415.0,547.0 L 415.0,547.0 L 416.0,547.0 L 417.0,548.0 L 417.0,548.0 L 418.0,548.0 L 419.0,549.0 L 419.0,549.0 L 420.0,550.0 L 420.0,550.0 L 421.0,550.0 L 422.0,551.0 L 422.0,551.0 L 423.0,552.0 L 423.0,552.0 L 424.0,553.0 L 424.0,553.0 L 425.0,553.0 L 426.0,554.0 L 426.0,554.0 L 427.0,555.0 L 427.0,555.0 L 428.0,556.0 L 428.0,556.0 L 429.0,557.0 L 429.0,557.0 L 430.0,558.0 L 430.0,558.0 L 431.0,559.0 L 431.0,559.0 L 432.0,560.0 L 432.0,560.0 L 433.0,561.0 L 433.0,561.0 L 434.0,562.0 L 434.0,562.0 L 435.0,563.0 L 435.0,563.0 L 436.0,564.0 L 436.0,565.0 L 436.0,565.0 L 437.0,566.0 L 437.0,566.0 L 438.0,567.0 L 438.0,568.0 L 438.0,568.0 L 439.0,569.0 L 439.0,570.0 L 439.0,570.0 L 440.0,571.0 L 440.0,572.0 L 440.0,573.0 L 440.0,573.0 L 441.0,574.0 L 441.0,575.0 L 441.0,576.0 L 441.0,576.0 L 442.0,577.0 L 442.0,578.0 L 442.0,579.0 L 442.0,579.0 L 443.0,580.0 L 443.0,581.0 L 443.0,581.0 L 444.0,582.0 L 444.0,583.0 L 444.0,584.0 L 444.0,584.0 L 445.0,585.0 L 445.0,586.0 L 445.0,587.0 L 445.0,588.0 L 445.0,589.0 L 445.0,590.0 L 445.0,591.0 L 445.0,592.0 L 445.0,593.0 L 445.0,594.0 L 445.0,595.0 L 445.0,596.0 L 445.0,597.0 L 445.0,598.0 L 445.0,599.0 L 445.0,600.0 L 445.0,601.0 L 445.0,602.0 L 445.0,603.0 L 445.0,604.0 L 445.0,605.0 L 445.0,606.0 L 445.0,607.0 L 444.0,608.0 L 444.0,608.0 L 444.0,609.0 L 444.0,610.0 L 444.0,611.0 L 444.0,612.0 L 443.0,613.0 L 443.0,613.0 L 443.0,614.0 L 443.0,615.0 L 442.0,616.0 L 442.0,616.0 L 442.0,617.0 L 442.0,618.0 L 441.0,619.0 L 441.0,619.0 L 441.0,620.0 L 440.0,621.0 L 440.0,621.0 L 440.0,622.0 L 439.0,623.0 L 439.0,623.0 L 439.0,624.0 L 438.0,625.0 L 438.0,625.0 L 438.0,626.0 L 437.0,627.0 L 437.0,627.0 L 436.0,628.0 L 436.0,628.0 L 436.0,629.0 L 435.0,630.0 L 435.0,630.0 L 434.0,631.0 L 434.0,631.0 L 433.0,632.0 L 433.0,632.0 L 432.0,633.0 L 432.0,633.0 L 432.0,634.0 L 431.0,635.0 L 431.0,635.0 L 430.0,636.0 L 430.0,636.0 L 429.0,637.0 L 429.0,637.0 L 428.0,638.0 L 428.0,638.0 L 427.0,639.0 L 426.0,639.0 L 426.0,639.0 L 425.0,640.0 L 425.0,640.0 L 424.0,641.0 L 424.0,641.0 L 423.0,642.0 L 422.0,642.0 L 422.0,642.0 L 421.0,643.0 L 421.0,643.0 L 420.0,644.0 L 419.0,644.0 L 419.0,644.0 L 418.0,645.0 L 418.0,645.0 L 417.0,646.0 L 416.0,646.0 L 416.0,646.0 L 415.0,647.0 L 414.0,647.0 L 414.0,647.0 L 413.0,648.0 L 412.0,648.0 L 412.0,648.0 L 411.0,649.0 L 411.0,649.0 L 410.0,650.0 L 409.0,650.0 L 409.0,650.0 L 408.0,651.0 L 407.0,651.0 L 406.0,651.0 L 405.0,651.0 L 405.0,651.0 L 404.0,652.0 L 403.0,652.0 L 402.0,652.0 L 401.0,652.0 L 400.0,652.0 L 400.0,652.0 L 399.0,653.0 L 398.0,653.0 L 397.0,653.0 L 396.0,653.0 L 395.0,653.0 L 395.0,653.0 L 394.0,654.0 Z" fill="#4B1C2F" stroke="none" /></svg>